<mxfile host="app.diagrams.net" modified="2021-12-10T14:48:27.859Z" agent="5.0 (Macintosh; Intel Mac OS X 10_15_7) AppleWebKit/537.36 (KHTML, like Gecko) Chrome/96.0.4664.55 Safari/537.36 Edg/96.0.1054.43" etag="gEPCCfp1QvhlApT2fqnw" version="15.9.4" type="github">
  <diagram id="Y7W0rqUV2vNG0wFdZO06" name="Page-1">
    <mxGraphModel dx="2018" dy="2291" grid="1" gridSize="10" guides="1" tooltips="1" connect="1" arrows="1" fold="1" page="1" pageScale="1" pageWidth="850" pageHeight="1100" background="#ffffff" math="0" shadow="0">
      <root>
        <mxCell id="0" />
        <mxCell id="1" parent="0" />
        <mxCell id="t6Iyf3yjnLZ49649UQFJ-1" value="AWS Cloud" style="points=[[0,0],[0.25,0],[0.5,0],[0.75,0],[1,0],[1,0.25],[1,0.5],[1,0.75],[1,1],[0.75,1],[0.5,1],[0.25,1],[0,1],[0,0.75],[0,0.5],[0,0.25]];outlineConnect=0;gradientColor=none;html=1;whiteSpace=wrap;fontSize=12;fontStyle=0;shape=mxgraph.aws4.group;grIcon=mxgraph.aws4.group_aws_cloud_alt;strokeColor=#232F3E;fillColor=none;verticalAlign=top;align=left;spacingLeft=30;fontColor=#232F3E;dashed=0;rounded=0;" parent="1" vertex="1">
          <mxGeometry x="570" y="-570" width="480" height="230" as="geometry" />
        </mxCell>
        <mxCell id="t6Iyf3yjnLZ49649UQFJ-2" style="edgeStyle=orthogonalEdgeStyle;rounded=0;orthogonalLoop=1;jettySize=auto;html=1;" parent="1" source="t6Iyf3yjnLZ49649UQFJ-3" target="t6Iyf3yjnLZ49649UQFJ-7" edge="1">
          <mxGeometry relative="1" as="geometry" />
        </mxCell>
        <mxCell id="t6Iyf3yjnLZ49649UQFJ-3" value="API Gateway" style="points=[[0,0,0],[0.25,0,0],[0.5,0,0],[0.75,0,0],[1,0,0],[0,1,0],[0.25,1,0],[0.5,1,0],[0.75,1,0],[1,1,0],[0,0.25,0],[0,0.5,0],[0,0.75,0],[1,0.25,0],[1,0.5,0],[1,0.75,0]];outlineConnect=0;fontColor=#232F3E;gradientColor=#FF4F8B;gradientDirection=north;fillColor=#BC1356;strokeColor=#ffffff;dashed=0;verticalLabelPosition=bottom;verticalAlign=top;align=center;html=1;fontSize=12;fontStyle=0;aspect=fixed;shape=mxgraph.aws4.resourceIcon;resIcon=mxgraph.aws4.api_gateway;rounded=0;" parent="1" vertex="1">
          <mxGeometry x="620" y="-493.2" width="78" height="78" as="geometry" />
        </mxCell>
        <mxCell id="t6Iyf3yjnLZ49649UQFJ-4" value="Send message" style="edgeStyle=orthogonalEdgeStyle;rounded=0;orthogonalLoop=1;jettySize=auto;html=1;" parent="1" source="t6Iyf3yjnLZ49649UQFJ-5" target="t6Iyf3yjnLZ49649UQFJ-3" edge="1">
          <mxGeometry x="-0.2684" y="-15" relative="1" as="geometry">
            <mxPoint as="offset" />
          </mxGeometry>
        </mxCell>
        <mxCell id="t6Iyf3yjnLZ49649UQFJ-5" value="LINE Bot" style="shape=image;verticalLabelPosition=bottom;labelBackgroundColor=#ffffff;verticalAlign=top;aspect=fixed;imageAspect=0;image=data:image/png,iVBORw0KGgoAAAANSUhEUgAAA+kAAAPoCAYAAACiYb/aAAAACXBIWXMAAAsSAAALEgHS3X78AAAgAElEQVR4nOzdT4xV150v+p1AF2lKwoVbpM19SFWR1UYCtSEDIqGWMBkkA1qm3YPTM8dEsifu8JIrlXtky45s3SvFJaWvSHsSS8HtpzepQXKJLoP0IJjBLSlcycZX5jWWrFRd8druRteUkeDFxE4//Tbn4AKqoOr822ut/flIJTu2A+fsfTh7f/f6/X7rSxWwbhMLnZmqqma6//3+qqqmun//QPd/r7Ty3wMAlObMHe9nsaqqpe7fL1dV9U7v728cnH/H2Yf1EdKha2KhM7UiWO+/I3gfdpwAAAb2TjfA9wL9Yu/nxsH5RYcXhHRaaGKhc7i7Gh4/+7qhXAgHAGheL8S/tSLAv3Pj4Pyyc0NbCOkUq1uavr/789iKYA4AQF56gf2tFcFdCT1FEtIpQjeQH+6ujO+3Mg4A0Apnuqvv5wV3SiGkk6VuyXovlB82oA0AgBUD697qBXil8uRGSCcLK0L5Y1bJAQDYgHe6gb0O7kI7qRPSSdLEQidK1p8QygEAGLJeaP+vNw7O37mNHDROSCcJK3rK/0r5OgAAY/SL7ir7L2wDRwqEdBqzYrX8r1bsRw4AAE1Z7Ib2NwyhoylCOmPVDeZPdcO57dAAAEjVcjewR1n8L5wlxkVIZ+QmFjq91fInlLEDAJAhgZ2xEdIZCSvmAAAUSmBnpIR0hqY7/O1YN5wL5gAAlE4PO0MnpDOQiYXOVHe1/ClbpQEA0GIR0t+oquqkvdgZhJBOX7rl7N/XZw4AAHc52V1dtw87Gyaks24rVs2/b8s0AAC4ryiH/y9W19kIIZ376vaaf7/bb27VHAAANi5W1/+L3nXuR0hnTRMLncMrStoBAIDBnemWwp90LFmNkM5dJhY6sWL+ogntAAAwMkrhWZWQTq3bb/6D7sq5knYAABiP5RVhfdExR0hvOeEcAACSESXwPxTW201Ib6nuMLgXu8PgAACAdAjrLSakt4xwDgAA2RDWW0hIbwnhHAAAsiWst4iQXrgVPecvtv1YAABA5oT1FhDSC2UgHAAAFOvvu2Hd1m0FEtIL1N3n/MfCOQAAFKu3ddvfC+tlEdILMrHQOVxV1c+qqppp+7EAAICWWOyuqp90wssgpBegOxQuwvnhth8LAABoqXeqqvqPNw7On/EByJuQnrFu3/mL3d5zAACAX3TDuuFymRLSM6XvHAAAWEPdr37j4PxLDlB+hPTMTCx09nfDudJ2AADgXmI1/btK4PMipGdCaTsAANCnX3TDuinwGRDSMzCx0HmiOxhOaTsAANCP5e4U+L939NImpCesu3oe4fyJth8LAABgKM50B8u943Cm6cttPwCpmljoRFn7bwV0AABgiGK21dsTCx1D5RJlJT0x9jwHAADG5J1ur7pV9YRYSU9Id/X8bQEdAAAYg/1W1dNjJT0Bes8BAICGWVVPhJX0hnUnt+s9BwAAmhSr6r/uVvfSICvpDemunv+4qqpjrTwAAABAqmIC/F/bV70ZQnoDJhY68ZTq51VVzbTuzQMAADlY7pa//8LZGi/l7mO2YjicgA4AAKQqKn9/PrHQ+bEzNF5W0sfEcDgAACBT73TL3xedwNET0sdAeTsAAJA55e9jotx9xJS3AwAABVD+PiZW0kfE9HYAAKBQUf7+TdPfR0NIH4FuefvPunsNAgAAlGa5G9TfcWaHS7n7kE0sdGIw3K8FdAAAoGBROfz2xEJH5fCQCelDNLHQeak7IG6qmDcFAACwtp9NLHR+5vgMj3L3IdB/DgAAtJw+9SER0gfUDejK2wEAgLZb7O6nrk99AEL6ALoD4n6tvB0AAKC23A3qZxyO/uhJ79OKAXECOgAAwE11pbGBcv0T0vvQ/cAZEAcAALC6GCj3Y8dm45S7b1D3g/aDrF40AABAM07eODj/Xcd+/YT0DehuLaBsAwAAYP1Mft8AIX0duhPcI6A/kfyLBQAASI+gvk5C+n3YYg0AAGAoIqh/1xZt9yak34OADgAAMFTL3RV1QX0NpruvYcUe6AI6AADAcPS2aJOz1mAlfRUrArot1gAAAIbPivoahPQ7COgAAABjIaivQrn7CgI6AADA2PRK3+2itYKV9C4BHQAAoDEx9f2kwy+k1wR0AACAxrU+qFdCuoAOAACQkOhRP9PmE9LqkC6gAwAAJKX1w+RaG9IFdAAAgCS1Oqi3MqRPLHQimL9dVdVMAi8HAACA27U2qLduC7ZuQP+1gA4AAJCs3vZs+9t2ilq1kr4ioLfuRAMAAGQoVtS/duPg/HJbTl7bVtIFdAAAgHz0VtRbM0usNSF9YqHzMwEdAAAgO/vbFNRbEdK7Af1YAi8FAACAjYug/rM2HLfiQ/rEQucHAjoAAED2nuguwBat6JA+sdCJcP7jBF4KAAAAgzvWXYgtVrHT3buj+t9O4KUAAAAwXN+9cXD+ZInHtMiQPrHQmekG9NZMAAQAAGiZr984OP9OaW+5uHL37sS/nwvoAAAARft1d4G2KCX2pP/cVmsAAADFqxdoS9uaraiQPrHQiSFxhxN4KQAAAIxecVuzFRPSu5Pci57yBwAAwF1ia7aXSjksRQyO605y/7U+dAAAgNb66xsH53+R+5vPPqR3+w9ikntxAwMAAABYt+Wqqr6Z+8T3Esrdfy6gAwAAtF4s4P4s90FyWYd0g+IAAABYIftBctmG9ImFzhMGxQEAAHCHGCSXbVbMsie9u2H92wbFAQAAsIav59ifnutK+s8FdAAAAO7h5zn2p2cX0rt96PsTeCkAAACkaybH/vSsQro+dAAAADYgu/70bHrSu2UKv1XmDgAAwAZl05+e00q6PnQAAAD6kc3+6VmE9G55gv3QAQAA6EfMNXsxhyOXfLn7xEJnf3e7NQAAABjEX984OP+LlI9gDivp2U3jAwAAIEnJl70nHdInFjov2W4NAACAIZlKfSE42XJ3Ze4AAACMSLJl70mG9G75wdvdzecBAABgmJarqvrajYPzy6kd1VTL3X8goAMAADAiyZa9J7eSrswdAACAMUmu7D3FlXTT3AEAABiH5Ka9JxXSTXMHAABgjCKg/zilA55MufvEQid60H+bwEsBAACgXb554+D8mRTecUor6crcAQAAaEIyeTSJkD6x0DlWVdXhBF4KAAAA7TPTbb9uXOPl7t0m/d92ewEAAACgKbF3+mKTRz+FlfQXBXQAAAAS0HjZe6Mr6fZEBwAAIDGN7p3e9Ep6UqPuAQAAaL1Gc2pjIX1iofOEYXEAAAAkptEhco2Uu3eHxUWZ+0wTvz8AAADcw3JVVV9vYohcUyvpPxDQAQAASNRUd8j52I19Jd2WawAAAGQiVtPfGedLbWIl/ccCOgAAABkY+xC5sa6kTyx0Zrqr6AAAAJCDb944OH9mXK9z3CvpjW8MDwAAABsw1hw7tpA+sdA5bMs1AAAAMhNbsh0b10se50p6I5PxAAAAYEBjy7NjCelW0QEAAMjY2FbTx7WSbhUdAACAnP24u6X4SI08pFtFBwAAoAAR0H8w6rcxjpV0q+gAAACU4PujXk0faUi3ig4AAEBBRr6aPuqVdKvoAAAAlGSkq+kjC+lW0QEAAChQBPQnRvW2RrmSbhUdAACAEo0s744kpFtFBwAAoGAj2zd9VCvpVtEBAAAo2Uhy79BD+sRCZ8YqOgAAAIWL1fSh96aPYiXdKjoAAABt8P1hv8cvDfMX666i/3aYvyYAAAAk7Js3Ds6fGdbLG/ZK+kga5wEAACBRTw3zZQ07pA99qR8AAAASdqxbVT4UQwvp3fHzUz45AAAAtMzQqsqHuZJuFR0AAIA2GloeHkpIn1joxJZr+4fxawEAAEBmprrV5QMb1kr6UBvlAQAAIDNDWU0feAu2iYVO9KFfyezgAQAAwLB9/cbB+XcG+TWHsZJu2zUAAAAYwmr6MEK6gXEAAABQVU90q837NlBI7w6MG9p+cAAAAJCxCOhPDPLyB11JNzAOAAAAvjBQtXnfg+O6S/i/7T4pAAAAAG762o2D84v9HItBVtKfENABAADgLn2vpg8S0pW6AwAAwN367kvvK6RPLHRiWNxhJwIAAADuMjOx0OkrqPe7kj7QtDoAAAAo3F/18/b6Den2RgcAAIC1jWclfWKhs9/e6AAAAHBPUxMLnWMbPUT9rKQbGAcAAAD3t+GS935Cun50AAAAuL8nJhY6G9q6fEMhXak7AAAAbMiGFro3upKu1B0AAADWb0Ml7xsN6UrdAQAAYP1Gs5Ku1B0AAAA2bmKhs+6gvpGV9MPOBQAAAGzYukveNxLS9aMDAADAxg13JX1ioRNl7vudCAAAANiwqYmFzrqq09e7kq7UHQAAAPq3rpL39Yb0DY2MBwAAAG5jJR0AAAASsb/bSn5P9w3p3br5KWcVAAAABnLfBfD1rKQrdQcAAIDB3TdfryekK3UHAACAwQ22kj6x0Jmy9RoAAAAMRWzFds+Mfb+VdKvoAAAAMDxP3OtXul9If8yJAAAAgKG5Z862kg4AAADjc8+cvWZI148OAAAAw9fd6nxV91pJt4oOAAAAw9dXSNePDgAAAMO3Zt62kg4AAADjtWZr+b1Cun50AAAAGL4190tfNaTfq4kdAAAAGNj6Q7pSdwAAABipVfvS1wrp+5wLAAAAGJkNraTrRwcAAIDRWV9In1joTFVVNeNEAAAAwOisNg9utZV0q+gAAAAwenfl782r/JaGxgHAkE1tnqwe3Xp7odr0lh3VzJYdq/5G8e+mt3x1ZKdh6dN/q5Y+vbzqvzt/fbFa/uz6bf/s3fqfXRvZ6wGAlrprHtxqId3QOAC4h32TM9UDmybr/+CxbXtu/YePTs5UU91//sDmrdW+rSl3j+1Zx3+ztgjyn3SD/PLn16p3ry3e+m/funqh/usnn1+rzq/45wDAXe5aSf/Snf9gYqHzWz3pALRRb/V6akXAPrRtb/3Xm/9u9VVv7i9W7Xsr92evvlf/tbdif69VfQAo3Y2D87fl8tVC+r/7FABQol4I3zc5Xa9491a+H+3+b5p1c0V+6dbK/HK9Er8kxANQum/eODh/pvcebyt3X22yHADkpBfEowz9gc2T9Yq4VfA8xIOSQ932gaPbD9z1mnsl9rESL8ADUJDbKtnv7ElX5g5AFqIvPIJ3hPBHV/w95fqiBeHufvqzVy/cWoGPMB/BXT88AJkQ0gHIx8qVcWGctay1Ah+BPYJ7hPYYaGdKPQAJemzlS7ozpD/mjAHQlJWr4zGwTa84g4rPUu+hzvPdX6vX+x5l8xHiz3dDPAA0xEo6AM2rw/jkzTB+M5QPtiUYrFev933lZ05wB6BBt+Xw26a7m+wOwChMbZ6sHt06c6tkPcKRFXJSF8E9et2jXD5K5XtbxwHACHz9xsH5d6qVIb072f3XjjYAg4pV8nqFvBvI9ZBTilhlP9sN7FbbARiiv75xcP4X1R3l7lOOMAD9iDDeWymPcG67M0rV63E//tCR+h1GSI/A3ltpF9oB6NP+qqruCun7HU0A1qO3Un70wQNK12m1+LPw5I7D9U8ltAPQv+ne/3NlSH/AAQVgNb1QbqUc7u1eof2XV87Z/g2AtdzqDVzZkx796IcdMgDCzVXyvXrKYYh6Pe2nPj5nEB0AKy3eODj/teqOkP62kneA9ooVwF4wP7r9gE8CjFhvenwvsCuNB2i3Gwfn63y+MqTbfg2gZXp95RHKlbBDs3qr7G9ePlNPjgegdb524+D8Yh3SJxY6Mdn9is8AQNliv/LHtx+oe8sff/CAgW+QqFhl/+XH56pTV87VwV0vO0ArfPPGwfkzvcFxytwBCrVyErsydshDPEBbOYAuwnqUxRs+B1C0elv0zc4xQHl6/eVxg2/oG+QvHrD1HrLVfexXflOHdn3sAEWp90q3kg5QCMEc2uFQvRXinmpu+ljdxx497AI7QDl6IX3KOQXIj2AO7RZ/7vdNH7sV2E98eFpJPEC+9lUrQvoDTiRAHnrD3/SYAytFYH/94Wfrf6KHHSBLt/WkK3cHSFxvxVwwB+5nZQ97XQ7fDe0ApM/gOICE7Zuc6U54fsx2aUBfelPiY1u3Ny+/ZR92gHTVW3r09kl/22o6QBqinD1C+fGH/rLuOQcYtt7AuQjtyuEB0nHj4PyXeiH9350XgGYpZweaoBweIB1COkDDYqX8O91SVKvmQJNiC7cI7P94+Yzt3ACa800hHaABVs2BlMXKem//dQDG6ptfmljoRC/62447wGhFr/nxh45YNQeyESvqJz76b3rXAcanDukxQe7XDjrAaBzatrf6zo7H6nAOkKtYWT/x0WmT4QFGS0gHGJUI5cd3Hqn2bZ1xjIFinL16oe5bj9AOwND9RyEdYIh6Je3f23nEvuZA0XqD5mJ1XSk8wND8UEgHGILoMX9hV0dJO9BKEdZfvjRvKjzA4H64uaqq/Q4kQH+i3zzC+aFtexxBoLWe7G4lGVPhT3x4ujp79T0fBoA+RUifcvAANka/OcDdYlvJ+NG3DtC/zY4dwPpFOI+Vc1uoAawtqoviJ74vowxeWAdYv02bnt4bDZSaKAHWEMPgnvsPT1Tzu5+r/uZP/qL+3wDcX3xfHn3wQPWdmNfxpap6/3f/Uv3uD7935ADWtiikA6yhF87f/LPvV9+e2l995csTDhVAH+L7NL5Hn/nTb1V//OWJ6t3rS8I6wOqWlbsD3ME2agCjEd+pz+/q1N+vP/nwtO3bAFYhpAN0CecA4yGsA6xNSAdaTzgHaIawDnA3IR1oLeEcIA3COsAXhHSglV7o3gwK5wDp6IX12O7S1m1AW33ZmQfaJG783v/6P9Q3gQI6QJqmt+yoXn/42fr7Or63AdpESAda4dC2vfXNXtz0xc0fAOnrhfXfPPqj+nscoA2UuwNFi5u6KG0/tG2PEw2QqX1bZ6p/2vNidfbqhWp26WR1/tqiUwkUS0gHihSrLy90+xoBKEM8cP3Nn/+o7lWPnvWlTy87s0BxhHSgKL2J7dFzDkCZ4gHs4w8eMAkeKJKedKAYcdN28es/EdABWqA3CT5W1lVNASUR0oHsRd95DBWK4UImtgO0S2+43D/teclwOaAIQjqQrbgxm9/9XD1MKIYKAdBe0a8e14P6ge1mD2yBfAnpQJZiKFysnh/dfsAJBOCWXuvT8Z1HHBQgS0I6kJXefufRh6i0HYDVxPVhbvpYfb1QAg/kRkgHsrCytD3+HgDuJ64XSuCB3AjpQPKiZFFpOwD9UgIP5MQ+6UCy9k3OVD99+FlD4QAYWK8E/uj2b1SzSyer89cWHVQgSVbSgeRESeLczLF671sBHYBhiinwcX2JAaRK4IEUCelAUuo9z//8R9Xxh5QkAjA6MYA0rjcGywGpEdKBJMRqhsFwAIxTb7BcVG9ZVQdSIaQDjTv64IF6oI/BcAA0Iaq3YlU9rkcATRPSgcb0Vs/nH3nOnucANKre6vOR5+rrklV1oElCOtAIq+cApCiuS/X1yao60BAhHRgrq+cApC6uT3Gd0qsONEFIB8YmJuhaPQcgF71edRPggXES0oGR6+17HhN0rZ4DkJOVE+ABxkFIB0Zq3+SMfc8ByF69qv7oj+rrGsAoCenAyLywq1MHdPueA1CCfVu7D553evAMjI6QDgzdzdLAl6rnd3UcXACKMzd9rL7OGSoHjIKQDgxVbFkT5YCHtu1xYAEoVlznYhiqoXLAsAnpwNDEUB1bqwHQFnG9M1QOGDYhHRhYlLfH6rnhcAC0UW+onBkswDAI6cBAeuXtMUwHANqqHir36I/q6yLAIIR0oG/K2wHgC3E9jOui8ndgEJsdPWCjopxvfvdzVs8BYBVR/h7XyM77r1bLn11ziIANsZIObEhMsVXeDgD3Zvo70C8hHVi3F3Z16im2ytsB4P5609+P7zRYFVg/IR24r6nNk3V5+/O7Og4WAGzQ3PSx6vWHn62vpwD3I6QD97Rvcqb61Z4Xq6PbTasFgH49ueNwfT21TRtwP0I6sKbYRiZuKPSfA8Dgetu06VMH7kVIB1YV/XO2VwOA4er1qcfKOsBqhHTgNtEvF31z0T8HAIxGXGvjB+BOQjpwSwT0X3m6DwBjEdfbKH83UA5YSUgHajEgLvZz1X8OAOMT1916/suk6y9wk5AO3BoQp/8cAMavF9QNlAMqIR2IUjsD4gCgWQbKAT2bHQlorxhY42YAANIR1+aZLTuqly/NOyvQUlbSoYV6E9wFdABIz/O7Oia/Q4tZSYeW6U1wNyAOANIVD9Knt3y16rz/arX82TVnClrESjq0yPSWHQI6AGTi0LY9Nwe72qINWkVIh5aIrV1iL1YBHQDyEdft3/z5j2zRBi0ipEMLxIXdFmsAkKdblXCCOrSCkA6Fswc6AOQvruOCOrSDkA4Fswc6AJQjrudR+m53FiibkA6Figu47VsAoDy2UYWyCelQIAEdAMomqEO57JMOhXlhV6d6flfHaQWAwvUeyL95+YxTDQUR0qEgnqoDQLsI6lAe5e5QCAEdANop7gHmZo45+1AIIR0KIKADQLsdf+iIeTRQCCEdMiegAwCVwbFQDCEdMiagAwArCeqQPyEdMiWgAwCrifsDPeqQLyEdMiSgAwD3Ej3q7hUgT0I6ZCb2QXfRBQDux0N9yJOQDhmJC+3zuzpOGQCwLoI65EdIh0wYBAMA9ENQh7wI6ZABAR0AGISgDvkQ0iFxAjoAMAxxP7FvcsaxhMQJ6ZCwuJDOzTzlFAEAQ/GrPS8K6pA4IR0SFRfQuJBObZp0igCAoYj7CkEd0iakQ4Kmt+wQ0AGAkYj7i/lHnqumNrvPgBQJ6ZCYuGDO735OQAcARubWgoCgDskR0iEhcaGsS9C2KkEDAEYr7jdiRR1Ii5AOCZmbfkpABwDG5tC2PXaRgcQI6ZAI+5cCAE2I+48XdnUce0iEkA4JiIujgA4ANOX5XR33IpAIIR0advTBA8rMAIDGxf2IrdmgeUI6NCguhD8V0AGARNhDHZonpEND6q3WHrHVGgCQjrgviQUEW7NBc4R0aEg8qY49SgEAUmJrNmiWkA4NqHu+bLUGACQqtmabmznm9EADhHQYM5PcAYAcHH/oiHsWaICQDmN0aNtek9wBgGzMzTxlkByMmZAOYxL95/O7Zx1uACAbMUiuHnRrkByMjZAOYzK/2yR3ACA/9UKDQXIwNkI6jIFBcQBAzgySg/ER0mHEDIoDAEoQg+SOPnjAuYQRE9JhhGLQSgxcAQAowU+jOtAgORgpIR1GJAasxIVMHzoAUIq4r6nvbwySg5ER0mFEfqoPHQAoUNzfzE2rFIRREdJhBI7vPFId3a5nCwAok5k7MDpCOgxZ9Gk9v6vjsAIARYu5O7E9GzBcQjoMkT50AKAt4n5nfrf902HYhHQYolhB14cOALRF3Z9u/3QYKiEdhiT2DY39QwEA2iTufw5t2+ucw5AI6TAEvTJ3AIA2mt89a1s2GBIhHYZg/pHn9KEDAK3V2z8dGJyQDgOK7dYObdvjMAIArRbbz9qWDQYnpMMAbLcGAPAF27LB4IR0GIDt1gAAvhD3Ra8//LeOCAxASIc+vWC7NQCAu0QbYLQDAv0R0qEPytwBANYW90nK3qE/Qjr0wfRSAIC1KXuH/gnpsEHK3AEA7k/ZO/RHSIcNiLItZe4AAOuj7B02TkiHDVC2BQCwfsreYeOEdFinKNeKsi0AANYv7p+OPnjAEYN1EtJhHaY2TypzBwDoUwzdjfsp4P6EdFiH+sKyyYUFAKAfcR9lwQPWR0iH+zi0bW91dLsSLQCAQRx/6Eh9XwXcm5AO9/G6PdEBAIZibuYpBxLuQ0iHe3jBtiEAAEOzb+uMvdPhPoR0WEOE8++5iAAADFX0phsiB2sT0mENczPHDIsDABiyuL+am1b2DmsR0mEVhsUBAIzOkzsOGyIHaxDSYRWGmgAAjNYLtmSDVQnpcIcYZhJDTQAAGJ1D2/bUK+rA7YR0WCGGmDzvqS4AwFi8YIgc3EVIhxWOP3TEsDgAgDGJ3XTi/gv4gpAOXXGRsIoOADBeseWt1XT4gpAOXYaXAACMny3Z4HZCOlRVtW9yxuASAICGxH1YVDUCQjrU5qaPORAAAA1S1Qg3Cem03qFte+stQAAAaE6spsd9GbSdkE7reWoLAJAG92UgpNNyVtEBANIR92VW02k7IZ1We/3hZ9t+CAAAkmI1nbYT0mktU0QBANJjNZ22E9JpLU9pAQDS5D6NNhPSaSWr6AAA6bKaTpsJ6bSSp7MAAGlzv0ZbCem0TjyVtYoOAJA2q+m0lZBO63gqCwCQB/dttJGQTqvYFx0AIB9x37ZvcsYZo1WEdFrF01gAgLwcf+iIM0arCOm0RjyFtYoOAJAXu/LQNkI6reEpLABAnlRD0iZCOq0QT1/jKSwAAPl5/MED1dTmSWeOVhDSaYXvCOgAANma2jSpKpLWENIpXjx1/d5OX+oAADlTFUlbCOkU7/HtB+qnrwAA5Ev7Im0hpFM8g0YAAMqghZE2ENIp2qFte23ZAQBQiNhON7bVhZIJ6RTtuF50AICiGCBH6YR0ihUr6Ee3H3CCAQAKEn3ptmOjZEI6xdKzBABQpid3PObMUiwhnWKZ/gkAUKbjD/2lM0uxhHSKdPTBAwbGAQAUKu7zYkAwlEhIp0hW0QEAyvYdJe8USkinOAbGAQCUzwA5SiWkU5wodQcAoHyPW5ihQEI6xTFIBACgHY7vtGc65RHSKcq+yRkD4wAAWmLfVvd+lEdIpygGxgEAtMvxnaooKYuQTlGeNOUTAKBVDAymNEI6xYiBcVObTPgEAGiTKHePlkcohZBOMTxFBQBoJy2PlGSzs0kpHrf1WpLOXr0wtpf16OS0aopELH16uf4Zh1hBaXJoUJvea058BhmnBzZvrQeY0ZxoeZxdPOkMUAQhnSIodU/PK5fmqxMfna6WP7s21tcWT9LnZp7yeWhIPJR5+dJ8dfbqe2N9AVHmOFETYEMAACAASURBVDd9rDq0bc/Yfs/z1xer2cU3WvFec9LUZ/DQtr3VC7s6rfgMsrp4UDM3c0xlX0Piuh/3g6c+PtfK909ZNm16em/UhqgPIWvP/Ycn9CIlYvnza9Xj//yfqzcvn6l+94ffj/1FvXt9sZr/3/+9OvTA3uqhP5pK9CiVKc555/1XG1nR+9ffL9e//8yY+hJPXTlX/c37c9XF/+//Hfnvdadxv9ecNPkZjN9znOclfq/H//k/WUFPyCefX6+vP3FOjqrua8Snf/h9/f0MmVvUk04RlLqn45UGVrDuFDdIz3zwWrLHqESxovd0Asc8XsOoWyx6n69xV4ncKd6rm9EvxHlv02dwdumNkf4e9C8eoPiz2Qz3g5RCSCd7St3TETeOJz48ncTrOX9tsb5RYjyi5DYVT3/wDyN9JVFK3XRA74mHBVZSb4rzkopRv5aUPoOsTm90M+J+MFpPIHdCOtnT+5WO1ELxP15+K4FXUb5ocUipJzZCa6zsj8ovE1ohi6AW5d1tF+c8pc9gvJZRPjzxADJ9Nz+T4xucyhe0GlACIZ3sKW1KxyiDUT8MUxqPd68tJfeaPvns+kh+3fiMp7aCGVUjs0vtXrVLsZpgVK9J8MuHa1AzLN5QAiGdrEVJk1L3dCyPKBhBKkYV/gcVbSZ6YAFuTtk3VJPcCelkTUkTwE360wFusppO7oR0suZLGOCmKMNPYbo5QNO0QpI7IZ1sRTlT/ABwU/TAvpLQlHOAJuzbOuMekawJ6WRLqTvA3WJ7LsPFgLazFRs5E9LJli9fgNXFtmyxNR5AW1nMIWdCOtnSjw6wunr/9Itzjg7QWoe27XHyyZaQTpasogPcm/50oM1ii15bsZErIZ0sKWECuL/oTz9/fdGRAlpJ1SW5EtLJkhImgPXpXNSfDrSTyktyJaSTnanNk/XWGgDc39Knl6tn7J8OtJBFHXIlpJMdX7gAG3Pq43PViY9OO2pA61hNJ0dCOtnxZQuwcbOLJ/WnA63zmMUdMiSkkx0r6QD90Z8OtI3FHXIkpJMV/egA/dOfDrSNxR1yJKSTlUcFdICBRH/6m5fPOIhAa1hNJzdCOlnRVwQwuNmlN/SnA62xb3LaySYrQjpZ8SQUYHDLn12ry971pwNt4P6R3AjpZEVfEcBwnL+2WM0uvuFoAsVz/0huhHSysW9SPzrAMEVvuv50oHRTmyar6S07nGeyIaSTDUPjAIZPfzrQBhZ7yImQTjZ8uQIMX68/HaBktvAlJ0I62fDlCjAadX/60klHFyiW4XHkREgnG4Z+AIzOiQ9PV6eunHOEgSI9ahs2MiKkkwWl7gCjF2XvS59edqSB4hgeR06EdLJgaBzA6EV/euf9Vx1pGALl1emx6EMuhHSyMOPJJ8BY6E+HwcWKrTa99JhvRC6EdLLgaTTA+OhPh8HMzRxzBBP0qJV0MiGkkwXDPgDGK/rTlz+/5qjDBh3feaQ6uv2Aw5YgPenkQkgneVObJ+thHwCMT92ffnHOEYd1in7n+d3PVXPTVtFTpdydXGx2pkidoXEAzTh79b3qlUvz1fO7Os4Aa3pyx+HqOzsOt/oAxQqtVdo8xMOUmL0BKRPSSZ6LHkBzXr40X88FMQSLtcwYkkZG4r5SSCd1yt1JnsnuAM2Kbdn0pwMlUPJODoR0kmeyO0Cz9KcDpVChSQ6EdJL3wOatThJAw3r96QA5m97yVeeP5AnpJE9ZEkAaoj/9/HW9nEC+bOtLDoR0kqYkCSAtnYv604F82daXHAjpJE1JEkBalj69XD3zwWvOCpAt845InZBO0qykA6Tn1MfnqhMfnXZmAGAEhHSSZvs1gDTNLp7Unw5k6TH7+pM4IZ2kWUkHSJf+dAAYPiGdpOlJB0hX9KfPLr7hDAFZ0ZNO6oR0AKBvb14+U/8AAMMhpJO0Q3qGAJI3u/SG/nQgG9opSZ2QDgAMZPmza/W2bPrTgRwI6aROSCdZvkAB8nH+2qL+dAAYAiGdZBkaB5AX/elALgyPI2VCOgAwNNGfHlPfAYD+COkkS7k7QH6iP73z/qvOHAD0SUgnWTNCOkCW6v70pZNOHpCsfZPTTg7JEtIBgKE78eHp6tSVcw4skKSpTZNODMkS0gGAkYht2fSnA8DGCOkky9RNgLzpTweAjRPSAYCR0Z8OpMhiECnb7OwAAKMU/elHt3+jOrRtj+NcoLeuXqiqS/Otff+xG830lq/6fANDI6QDACMXZe8Xv/4Tw5oKdPbqe/VP20VYf2FXp3pyx+G2HwpgQMrdSdYDm7c6OQCFqPvTL845nRQrhiQ+/cFr9Q/AIIR0krVv64yTA1CQWG19pcVl0bTDm5fPVCc+Ou1sA30T0gGAsXn50nx1NnqYoWAeRqUv2hMgVUI6ADBW0Z++/Pk1B51iRXuHh1FpE9JJmZAOABk7vvNIdjeb+tNpA8P0gH4J6QCQsZiW/vrDf5vdG4gAo28XAO4mpANA5mJ/5tj6KTeziyer89cXffwAYAUhHQAK8PyuTnVo297s3kjnov50AFhJSAeAQszvnq2mNk9m9WZib+ln7CsNALcI6QBQiOhPn3/kuezezKmPz+lPB4AuIR0ACqI/HQDyJqQDQGGiP33f5Ex2b0p/OgAI6QBQpCh7z7E/fXbxjQReCQA0R0gHgAJNb9lR/fThZ7N7Y29ePlP/AEBbCekAUKij2w9Ux3ceye7NzS69oT8dgNYS0gGgYHPTx7LrT1/+7Fq9LZv+dADaSEgHgMLl2J9+/tqi/nQAWklIB4DC6U8HuF0MqoRUCekA0ALRn/7kjsPZvdHoT3czDQyb7xVSJqSTrLNXLzg5AEM0N/NUlv3pnfdfTeCVAMB4COkA0BJTmybrsvcs+9OXTibwSgBg9IR0AGiRfVtnqrnpp7J7wyc+PF2dunIugVcCAKMlpANAy0Rveo796bEtmz5SAEonpANAC+lPB9rs7NX3nH+SJaSTLF+eAKPT60/PTfSnv3Jp3icDgGIJ6QDQUnV/+syx7N78y5fm7QACQLGEdABoseMPHamOPngguwMQZe/Ln19L4JUAOfL9QcqEdJK1aDgQwFhE2fv0lh1ZHey6P/3iXAKvBMjR+WtLzhvJEtJJlgm+AOMR/enzu5/L7mjH7BL96QCURkgHADLvTzdolPQ8sHnSWUnYJ8rdSZiQTrKWPv03JwdgjHLtT3/ZajoJOrRtj9OSsNgpAlIlpJMs5e4A4xf96VNWAGEgMeMhqlMA+iGkAwC31P3pj+TXnw4pybF1pE0sBJE6IZ2k2QcXYPyiTPeFXR1HHvrw+sPPVke359c20iZCOqkT0gGAuzy/q1Md2rbXgYF1ij8v/7TnperJHYcdssTZI53UbXaGSNn564sGrwA0ZH73bLX77e/Ve5LDWiKUfqflwfTRyem6VYQ8vGtoHIkT0knaJ24MARrT60//1oWXnATWNLNlhwfqAEOk3J2kLeoZAmiU/nSgNG+ZeUTihHSSZrAHQPOiP33fpO2kAGAchHSStvTpvzlBAAmIsnf7pwMlOHv1PeeRpAnpJM1KOkAaprfsqH768LPOBpA1k93JgZBO8mLCOwDNi72fj+884kwA2Xr32pKTR/KEdJL3yWfXnSSARMxNH9OfDmRLKyU5ENJJnr4hgLToTwdypZWSHAjpJM82bABpif70uemnnBUgO7ZfIwdCOsnzxBMgPU/uOFz/AOTkE4PjyICQTvLeNTgOIElzM0/pTweycv6a+0rSJ6STvOXPrtkuAyBBU5sm623Z9KcDObBjELkQ0smC7TIA0rRv64z+dCAL71pFJxNCOlnw5BMgXfrTgRyYc0QuhHSyoH8IIG3Rnx5T3wFSZbI7uRDSyYLhcQBpi/70+d3POUtAstxPkgshnSxYSQdIX92fPnPMmQKSE6XuMYwYciCkkw196QDpO/7QkerogwecKSAp7iPJiZBONkzkBMhDbMumPx1IiftIciKkkw1PQAHyoD8dSI2hceRESCcbZ325AmRDfzqQEkPjyImQTjYMjwPIS/SnH9q211kDGhXVmIbGkRMhnaxYTQfIy/zu2Wpq86SzBjTG/SO52eyMkZOzV9+rDm3b45yxbq9cmm/1wXpg82T9ZyZKj6EJdX/6I89V37rwkuNfqLrXt+XftY9OztTftfF5Jz2qMcmNkE5WDI9jo15u+Y1jT5Qcz808JazTiAgvL+zq+PNYqHiAHj9tFxUj0eLx/K5O2w9Fcnw+yY1yd7KiXAn6Ezco377wQw+6aEwEF/3plCx6nuNB1NMfvOY8J2Tp08v1D+RESCcrcQEUMqA/8ecngvry54bn0Az96bTBm5fPtL7VKiVW0cmRkE523tVXBH2LoP6TD087gDSi158OpTvxke/ZVNgfnRwJ6WTHly0M5tSVc44gjYn+9OM7jzgBFC0eiGrRS4OVdHIkpJMdX7YwGFNuadrc9LFq36QhhpTN/Urz9KOTKyGd7MSXrb50gLxF2bv+dGCUPCghV0I6WVJCBpC36S07qp8+/KyzCIyM9i5yJaSTJU9GAfJ3dPsB/enAyFjUIVdCOlnypQtQBv3pwCjEvWIM8IMcCelkydRUgHLoTweG7dSV3zimZEtIJ1u+fAHKEP3pc9NPOZvA0FjMIWdCOtny5QtQjid3HK5/AAZV7wRku1EyJqSTrfjytfclQDnmZp7Snw4MzFR3ciekkzVT3gHKMbVpst6WTX86MAj3h+ROSCdrnpQClGXf1hn96UDflj+/Vp362P0heRPSyZovYYDy6E8H+vVL94YUQEgne1bTAcoT/ekx9R1gI9wXUgIhnexZTQcoT/Snz+9+zpkF1k2pO6UQ0sneLz0xBShS3Z8+c8zJBdZFqTulENLJ3vJn15Q2ARTq+ENHqqMPHnB6gftyP0gphHSKoLQJoFyxLZv+dOBelLpTEiGdIih5ByiX/nTgfpS6UxIhnSIoeQcoW/Snv7Cr4ywDqzrx0WkHhmII6RRDiRNA2Z7f1akObdvrLAO3Wfr0cnX+2qKDQjGEdIqh5B2gfPO7Z6upzZPONHDLm5fPOBgURUinGFHy7ksaoGx1f/oj+tOBL/yj+z8KI6RTFH3pAOU7tG2P/nSgdvbqhbrcHUoipFOU6EuPLTgAKJv+dKCyik6hhHSK8+blt5xUgBbQnw7tFgszWh0pkZBOcXxZN2dq89a2vnVaYnrLDqc6IdGf/tOHn23Ve37A92w2HvAAaeQszFAqIZ3ixBYc56/bhqMJSk/zcPTBA0N9nY9OTif3vkcVpuPXTW3l9vEhn8/cHN1+oDq+80hyr3pUfy5iv3jVA3mI2QmM1okP/5sjTJGEdIp04sPTTmwD4maZ9p2nWM18csfhof6ag4iHRaNc8T7+UDqBMN5nhLa2m5s+Vu2bTOc4xGcw/lyMyuO+a5Pnz+boGRhHyYR0ihR7phsgN35xU2LictoiPIwiUMd5T2F1L17D3MxTI/09vrfzSDIrma8//LcJvIo0xLZsbfkMxq9vNT1t/myOnoFxlExIp0ixZ/ovP7YdWxNi4nJKq6p8IVYaY9DWKMQDml/tebHR4FCHo+mnRr56FSukTb/Xqg4BzyqnXSGVz2C8hrZ8BlmdP5ujFyvoZhBRsk2bnt4bd9PuqCnO0o3L1TN/+i0ntgHR8xyB8F9//4lStAREePk/d/5l9eaf/aD6ypcnRvaCHvqjqepv/uQvquXPr1f/68bl6nd/+P1Y3nwElc6f/EX1f/3ZD8Y2FyHea3y//PGXJ6p3ry+N7b1W3T9fcS6/PbV/bL9nLnrn5dN//331/u/+pZHP4O4//j/G8nv23mt8z47zzxtr82dzfH7y0em63B0KtfiliYXOS1VVvegMU6LfPPojPWEJcCFtTgyvGmVv7L3EA5pRP6SJBxApTFwfx3uNqd6+zzbGZ5Bx8Gdz/P70f3y3rpqEQp3Z7MxSshgg93rLtudJkbK/dkolvIxDm95rTnwGoTxR5i6gUzo96RSt/iI3QA4AoAgnPrKDD+UT0ineT2zHBgCQvWifO39t0YmkeEI6xbNFBwBA/l6+NO8s0gpCOsWzTQcAQN7ifu7s1fecRVpBSKcV/vHyW040AECmrKLTJkI6rRBPXm0DBgCQH1WRtI2QTmvoTQcAyI9VdNpGSKc14glsPIkFACAPVtFpIyGdVvEkFgAgHwI6bSSk0ypW0wEA8rD8+bXqxEennS1aR0indTyRBQBI308+PF0tf3bNmaJ1hHRaJ57IxpNZAADSZBWdNhPSaZ14IhtPZgEASNMrl+atotNaQjqtZDUdACBNMT/ohAUVWkxIp5WspgMApMluPLSdkE5rWU0HAEiLfdFBSKfFrKYDAKTFKjoI6bSc1XQAgDScvXrBKjqtVwnptJ3VdACANFhFh5uEdFovLgjR/wQAQDNiFf3s1fccfVqvEtLhJk9uAQCa8/QH/+DoQ5eQDlVV9z9ZTQcAGL+YEeQ+DL4gpEPX0x+85lAAAIxRDPB9RUUj3EZIh67og4p+KAAAxiMCegzyBb4gpMMKs0snHQ4AgDGIEvcTdtmBuwjpsML5a4v25wQAGAOthrA6IR3uEJPeoz8KAIDROHXlnC3XYA1COtwhSq9+ovQKAGAkYjFkdlGLIaxFSIdVxGq6rUAAAIYvFkPcZ8HahHRYgyFyAADDdf76Yr0YAqxNSIc1nPr4nC3ZAACGaHbxDYcT7kNIh3t4+oN/cHgAAIYgdtAxLA7uT0iHe4h+qVeUZAEADKQeFrdkFR3WQ0iH+zjxkeEmAACDeOaD16rlz2xxC+shpMN9xAXl6Q9ec5gAAPoQM35i1g+wPkI6rEP0T5264uICALARUeZuxg9sjJAO61SXaX2uTAsAYL1ito+2QdgYIR3WKcreDZEDAFifKHM/8eFpRws2SEiHDYgLjb3TAQDuTZk79E9Ihw2KC46ydwCAtSlzh/4J6bBB9k4HAFibMncYjJAOfVD2DgBwN2XuMDghHfqk7B0A4Hazi28oc4cBCenQJ2XvAABfOHXlXPXm5TOOCAxISIcBKHsHALhZ5v7MB685EjAEQjoMqPP+q8reAYBW61ycq5Y/cz8EwyCkw4DiguTJMQDQVic+isrC95x/GBIhHYbg1Md6sACA9jl/fbGaXTzpzMMQCekwJLNLppkCAO2hDx1GQ0iHIYmy9+hPBwBog9hu7fy1RecahkxIhyGKC5Vt2QCA0kWbn1Y/GA0hHYbs5UvztmUDAIpV96EvveEEw4gI6TACtmUDAErU60O33RqMjpAOI1D3p1+cc2gBgKLoQ4fRE9JhRGK/UP3pAEAp9KHDeAjpMELRn37qyjmHGADImj50GB8hHUYs+rbsnw4A5EofOoyXkA4jZv90ACBnEdD1ocP4COkwBnFhe/qD1xxqACArMV/n1Mda92CchHQYE8NWAICcnL16oZ6vA4yXkA5jFKvpMXgFACBlMU9Hux40Q0iHMfv2hR8aJAcAJCsGxUVANygOmiGkw5j1BsnFBRAAIDUGxUGzhHRoQFz4ZhftNQoApMWgOGiekA4NiSFyrxjGAgAkIu5NDIqD5gnp0KC4EJr4DgA0LQbbzi6p8oMUCOnQsLggmvgOADQl5uTEYFuD4iANQjo0LC6IJr4DAE0Q0CE9QjokwMR3AKAJMcjWJHdIi5AOiYgLZDzJBgAYh9mlk2bjQIKEdEhIBPWnP3jNKQEARirC+YkPTzvIkCAhHRITF01BHQAYlbNXL7jXgIQJ6ZCg+un2R55uAwDDFTvKxBwcIF1COiRqdlGfGAAwPCa5Qx6EdEhYlKIJ6gDAoAR0yIeQDombXXqjLk0DAOhXBHRbrUEehHRIXDzxri+sgjoA0IeozBPQIR9COmRAUAcA+qF1DvIjpEMmBHUAYCNipxgBHfIjpENGBHUAYD0inMdOMUB+hHTITAT1zsVX6ymtAAB3iof5UeYO5ElIhwwtfXr55jYqgjoAsEIE9LhHAPIlpEOmYkqroA4A9NgLHcogpEPGBHUAoBLQoShCOmROUAeAdusFdHuhQxmEdChAL6ib+g4A7fPMB68J6FAQIR0KIagDQPvEFPdTH59z5qEgQjoUxD7qANAeEdBjP3SgLEI6FEZQB4DyzS6dFNChUEI6FEhQB4ByRTg/8eFpZxgKJaRDoXpB3VN2AChHXNejzB0ol5AOBYugrl8NAMogoEM7COnQAoI6AORNQIf2ENKhJeLC7uIOAPkR0KFdhHRoERd5AMjLqSvnXLuhZYR0aJkI6t+68MNq+fNrTj0AJCx2aXlGQIfWEdKhhc5efa+e/C6oA0CaIqDX1+rPXKuhbYR0aKnz1xar3W9/z17qAJAYAR3aTUiHFuvtpR79bgBA8wR0QEiHloubgM7FV23RBgANE9CBSkgHemzRBgDNEdCBHiEduMXkdwAYPwEdWElIB27Tm/xuoBwAjF7MhRHQgZWEdOAuMfndQDkAGK2oYIu5MAI6sJKQDqyqN1DulUvzDhAADFkEdLNggNUI6cA9vXxpvuq8/6o+dQAYEgEduBchHbivUx+f06cOAEMgoAP3I6QD66JPHQAGI6AD6yGkA+vW61OfXTrpoAHABpz46LSADqyLkA5s2IkPT1ff+J9/p08dANYhwvnsogfcwPoI6UBfovx999vfq85eveAAAsAaIqBHmTvAegnpQN+i/P1bF16yTRsArEJAB/ohpAMDi23avnXhh9XSp5cdTABaL9rBYvtSAR3oh5AODMXZq+/VfeqmvwPQZhHQ691QPnY9BPojpANDs3L6u6FyALRNL6DH3BaAfgnpwNDF9Pf6JuW6mxQA2iGueQI6MAxCOjAScZPyjXf/rt4XFgBKJqADwySkAyMV+8IaKgdAqXoBPVq+AIZBSAdGzlA5AEoU09ujakxAB4ZJSAfGojdULrakMVQOgNxFQI990AGGTUgHxiq2pNn99vesqgOQrdjFREAHRkVIB8bOqjoAuYpwHruYAIyKkA40xqo6ALmIh8oxCDXK3AFGSUgHGmVVHYDUxfUpJrjHIFSAURPSgST0VtWtUACQkthiLSa42wMdGBchHUhGrKpHr5991QFIQW8PdNckYJyEdCA5vX3VX7k07+QA0Ah7oANNEdKBJMVN0cuX5qtH3v7b6uzVC04SAGNz4qPTtlgDGiOkA0mLEsNvXXipvlkyWA6AUYvrzeziSccZaIyQDmQhyg5jsFysbgDAsNliDUiFkA5kI0rgY3Uj+tWVwAMwLLZYA1IipAPZiW1wlMADMAwxwT0qtWyxBqRCSAey1SuBNwUegH6cunKuXkE3wR1IiZAOZG3lFPi42QKA9YgZJ52LrwroQHKEdKAIMQU+brZi6E+ULgLAWkxwB1ImpANFiaE/33j37+obsAjuANBjgjuQAyEdKFLcgMUU+OhXN1wOgKiyMsEdyIGQDhSr169uuBxAu8W2nRHQTXAHciCkA8VbOVxOiSNAu8T3fmzbaUAckAshHWiN6FGPXnVhHaAd4js/fgByIqQDrdML69+qexMv+AAAFMaAOCBnQjrQWjE8KEoghXWAchgQB+RuszMItN3NsP5edWjb3uqFXZ3q0LY9bT8kAFmKB66d91/Vfw5kzUo6QJeVdYB8nfjotAFxQBGspAPcwco6QF5izoj+c6AUQjrAGnphfXrLjjqsP7njsEMFkJAYEGf/c6A0yt0B7sPWbQDpiQFxu9/+noAOFEdIB1inXlj/0//x3eqVS/P1Cg4A4xcPTL/x7t/pPweKJKQDbFDcFL58ab5ewYnQHuEdgPGYXTpZf/cClGrTpqf3RpOlRkuADfrdH35fvXt9sZ4oHEF9avNk3b8OwPBF9dLj//yfq/n//d8dXaBkiwbHAQxBlF7Gz77Jmer4Q0cMmQMYoug/71x8VeUS0ArK3QGGKAYY9YbM6VsHGFw8AI0J7gI60BbK3QFG4JPPr1dnr16o5v7lvyqFB+hT9J8//7/+77q9CKAllLsDjNqdpfCPP3igmto06bgDrCGqkDoX56qzV99ziIDWEdIBxqRXCj+1NFk9vv1AdXznkWrf1hmHH2CF6D+P8nbbqwFtpdwdYMx6U+F/+q//VP3yyrnqK1/+o2r6Kzuqr3x5wqkAWi2qjh7/5/+kvB1oM+XuAE26c3X9OzsOV4e27XFOgNaJ78II6QBtJ6QDJCDKOnu96zFg7vjOv6yObj9g2BxQvBiu2Xn/1fqhJQDK3QGSE5Phf7X8TnXio9P1hPgvVZVyeKBI8R337f/H9moAKyh3B0hZTDaOn145/NEHD9Qr7AC5e+XSfPXypXnnEeAOQjpABlaWw8ee66bDA7mK7dWe+eC16tTH55xDgFUI6QCZubN/PVbXn9xxWGAHkhfbq3Uuvqq8HeAevjSx0HmpqqoXHSSAvAnsQMriweLs0hv2Pwe4tzNCOkCBBHYgFVHePrv4hu3VANZHSAcoXa+H3dA5YNxsrwawYWf0pAMUbmUPe+iF9ccfPFBNbZp0+oGROHXlXD0gTnk7wMYI6QAtExOV66nKH1TVvsmZW4FdWTwwLLNLJ6sTH552PAH6IKQDtFiUoMZP7FXcK4t/bNseq+xAX6L/vHNxrjp79T0HEKBPQjoAtdvK4rur7Ie27amObv9G/VeAezl79ULdf668HWAwQjoAq+qtsvdKVqOX/dC2vXVgVxoPrPTKpfm6IgeAwQnpAKzLrV727sT4COtCO7Sb8naA4RPSAdiwKGddLbRHWO8Fd6BsytsBRkNIB2Bgt4f2myWvEdb3TU7fCu0G0UE5lLcDjI6QDsBIRPlr/PR62qe37OgOo9vbXXG32g65Ud4OMHpCOgBjsfTp5fqnVyIfIrQ/unWm/qvgDmlT3g4wHkI6AI3pTZB/8/IXr+DO4P7o5LRSeWiY8naA8RHSAUjKasE9SuWnt3y1emzbnlt/b9UdRk95+//f3v2DyH2eeQB/HZsxROCsDxxyELDM06gBHgAAFnlJREFUFQc+iDaFA9Mk6yJXGJKTiimDLVCa40IsEOmCbZwuB5ZRrOaKrM7lFNkooOIar9xMocK7DjbkYMksGCxOYE8MMmS4cMc7+441Gu2/mfn9/30+IBwivPub97chfPd53ucBKJ6QDkDlTVvl54PCYeFd5R2yob0doBxCOgC1dVR4D2m6/NoTX5+0zAvwsJgr+5tfDX0EoFhCOgCNNA3us4PqwtyU+elud+BA/KVXrJ7HKycAlENIB6BV5qfMrz1xJvzo6RcmLfM/+rsXVNpprZuf3wk/3buuvR2gZEI6AK0WA8m797Ynf8LewXT5nzyzEX789AuTqjs0XRwOd2V44+B/AwCU7rHOoPd6COE1rwIAHhYD+8++9ZIKO421++VwUj3X3g5QGdsq6QBwhBhcLu1dD2v7By3xP/v7l9xhpzGu3b012X+uvR2gWoR0ADjBbEt8HDj3y2/37GmntmJ7e6yezw9VBKAahHQAWECcGv/Djz8S1qmluPv80t47k+GJAFTT17wXAFjcQVh/fdIOHyuTUHWxtT3+zAroANUmpAPACmIL/D9+8G+T9VVQRTGUf++PvwhvftL3fgBqQEgHgBXFO+u9P/16UlWHKom/PIoB3fR2gPoQ0gEgI7GqHgOR9nfKFn8G4y+N4i+PTG8HqBchHQAyFCuW//zxG4I6pYm7z7/34S8mvzQCoH6EdADIWAzqvT/9u2OlcHE4XAzohsMB1JeQDgA5iNPfr+xvOloKEUP5Dz9+w3A4gAYQ0gEgJ9c+vTXZSw15ms5CiL8YAqD+hHQAyJHKJnmJcw96/32wVcBwOIDmENIBIEexuhkHeUGWYodGvHt+8zP7+QGaRkgHgJyZsk2W4qyDH378uuFwAA0lpANAzlQ7ycJktdoffzGZdQBAcz3h3QJAvmLFM/559slnnDRLuXb31mS9mrvnAM2nkg4ABTB5m2VMV6tdGW4K6AAtIaQDQAEMj2NRNz+/Y7UaQAtpdweAAuze33fMnEpcrfbTvetmGQC0lJAOAAX4UCWdU4ir1S7tvWNyO0CLCekAUAD3iTlOrJ7HwXAmtwMgpANAQUx45zBxXkFsb9+9r9sCACEdAAojpDMvVs/f/KTvXAD4ipAOAFAw1XMAjiKkAwAU6NrdW5O95wBwGCEdAKAA8brDpb3r9p4DcCwhHQAgZ7F6Hu+fm/IPwEmEdACAnKieA7AoIR0AIAfv3tsOV/ZvqJ4DsBAhHQAgQ6O/3Z9Mbr/52R3HCsDChHQAgIzc/PzOJKCrngOwLCEdAGBFqucAZEVIBwBYgeo5AFkS0gGgIM8++YyjbhDVcwDyIKQDQEGE9OZQPQcgL0I6AMApqZ4DkDchHQAKoIpef6rnABRBSAeAAjz75Dcdc02pngNQJCEdAOAI797bDlf2b6ieA1AYIR0ACvCDp553zDWy/9d74dLe9fD+Fx+1/SgAKJiQDgAw49rdW+FXn/RVzwEohZAOAAX4zpmzjrniVM8BqAIhHQAKsPb4GcdcYarnAFSFkA4ABfi+O+mVtPvlcDK5fff+sO1HAUBFCOkAkDM70qspVs7f/KTf9mMAoGKEdADImR3p1fL+Fx+HK/ubqucAVJKQDgA5s36tGkZ/uz+pnl/79FbbjwKAChPSASBn2t3LF6vnl/bemUxwB4AqE9IBIGfa3csTq+dxMNzNz+609QgAqBkhHQByZrJ7Od69tx2u7N+wVg2AWhHSASBHWt2LF1vaL+1dD+9/8VHbPjoADSCkA0COtLoXazIY7u4t1XMAaktIB4AcmexejN0vh5O759aqAVB3QjoA5Ei7e76sVQOgaYR0AMiRdvf83Pz8Trgy3LRWDYBGEdIBIEcmu2cvhvIr+5vWqgHQSEI6AOREq3v24lC42N5uMBwADTUU0gEgJ1rds2MwHAAtsS+kA0BOTHZfncFwALRNDOkjbx0AsqfdfTVxMFysnmttB6BNYkjf8cYBIHva3ZcTB8Nd2rse3v/iozo+PgCsRLs7AOTEZPfFxNb233x6K7z5Sb9Ojw0AmRLSASAHWt0X8/4XH4dLe+/YeQ5A242EdADIgVb307HzHAAesmNwHADkwGT3k02mtt+9ZTAcAMx4Ytzt73QGPWcCABnS7n40re0AcDTt7gCQA+3uj9LaDgAncicdAPJgsvvDtLYDwMlip/s0pMdd6evODABWp9X9Aa3tALCYaUg3PA4AMqLV/aC1/dLe9fD+Fx9V4GkAoD60uwNAxto82X30t/vhN5/eCm9+0q/A0wBArWyHmZAe2903vD8AWN13zpxt5Sm+e297Es61tgPA8qYh/S/OEACy0bY76fHeeQznWtsBYCWTa+jupANAxs59vR2V9NjafmV4Y1JBBwBWthvm2t0BgBWda0mru5VqAJAPg+MAIEPfePxMo4/TvXMAyM2keK6SDgAZOnfm2UYep3vnAJC7B3fSx93+qDPoOXIAWNFawyrpsWIew7l75wCQu2GYa3eP1fR15w4A2HcOAMUad/uPhHQT3gFgRd9/6p9qf4RxIFwcDGcoHAAUZjj9RvOV9A3vAADayVA4ACjNoSH9L94HALRPHAp3ZX8z7N4fevsAUI4jK+kAwAr2//o/IYTna3GEJrYDQGXsTx/EnXQAyFAdWsXjM8bK+c3P7lTgaQCA2aL5VyF93O1vW8MGAKuJU9Gryjo1AKisQ9vdQ/qLs94bACwntpBXjXAOANU27vYfraQnQjoArCAOX4vV9LXHz5R+jMI5ANTCQ5Nb50P6bWvYAGA1f/jsTvjJM+X936mBcABQK8eGdLtXAGBFMSCXEdJjxfw/790WzgGgXm7PPq2QDgAZi23m1+7eCj/71ku5H238XgfhfLsWk+UBgEc8lMMfm//bzqD3f84MAFaz9sSZ8F/PvxbOfT2fUS8xmN/8/I41agBQfy/GbWvTT3FYSP+z4XEAsLoY1P/jH/41/PjpFzL5etNQ/ofP74TR/1Z31RsAcHrjbv+hXD7f7h7SEnUhHQBWFIN070+/ntxP/+W3e+HZJ59Z6AvufjmcDIGLd8xVzAGgkXbmP9RhIX03hHDe+weAbMTW9Pjn3Jmz4ftPPT9pgX/2yW8+8rVjGI/r23bv74cPvxyqlgNA850qpMde+Nf8MABAtuIO9fgHACDZnT+Irx1yMo8keQAAACBzj+TvRwbHBcPjAAAAIHfzQ+PCEZX0oJoOAAAAuTo0dx8V0h/piwcAAAAys1BI3z7ivwcAAABWd/uwr3BoSB93+0I6AAAA5GehSnpwLx0AAAByMRp3+wuHdNV0AAAAyN6RRfHjQvqh/fEAAADASo7M2yrpAAAAUKwj8/Yji9NndQa9D0II614WAAAAZGPc7R+ZxY+rpAfVdAAAAMjUsTn7pJDuXjoAAABk59icrZIOAAAAxdk67jsdG9LH3f7IvnQAAADIxJH70adOqqQH1XQAAADIxIn5+jQh/ffeBQAAAKzsxHx9Ykgfd/sx6Y+8CwAAAFhJJpX0oOUdAAAAVrIz7vaHJ32B04Z0Le8AAACwvFMVv1XSAQAAIH+nKn4/dtrH6Ax6H4QQ1r04AAAAWEhcvfb0af6F01bSoxveAQAAACxs67T/wiIhXcs7AAAALO7Uc95O3e4eDlre/xxCOOuFAAAAwOmMu/1TZ+9FKulhkRI9AAAAsFiOXjSku5cOAAAAp7fQSvOFQvq4298JIZy4fB0AAACYyLWSvvA3AAAAgJbaGnf7o0U++jIhXcs7AAAAnGyhVvew6HT3KVPeAQAA4Fijcbf/9KJHtEwlPXrbuwAAAIAjLXVVfNmQ7l46AAAAHG3hVvewbLt7OGh5fy+EsOGFAAAAwEOG427/uWWOZNlKejBADgAAAA61dPf5KiE9ftOFRskDAABACyw9x23pkJ52vbmbDgAAAA/sjLv94bLnsUolPWh5BwAAgIestA1tpZA+7va344V47wMAAADCyh3nq1bSg53pAAAAMLGVroYvLYuQvuldAAAAwOpF7JVDevotgaAOAABAm8WBcTurfv4sKunBADkAAABaLpOr4I9ldYadQe+DEMJ6Vl8PAAAAamI07vafzuJRs6qkBwPkAAAAaKnM8nBmIX3c7W+mcfMAAADQJpnNacuykh5U0wEAAGiZzXG3P8zqI2cd0k15BwAAoE0yHaSeaUhPvz0Q1AEAAGiD7XG3v53l58y6kh69kcPXBAAAgKrJ/Mp3ZivYZnUGvfdCCBt5fG0AAACogOG4238u68fIo5IeVNMBAABouFxyby6V9KCaDgAAQHPlUkUPOVbSg2o6AAAADZVb3s0tpKcJd5lOuQMAAICSjUIIW3k9Qp6V9KCaDgAAQMO8Pe72R3l9pFxDumo6AAAADRLD+dU8P07elfSgmg4AAEBD5FpFD0WEdNV0AAAAGiD3KnooqJIeVNMBAACouct5V9FDnnvS59mbDgAAQE3lthd9XlGV9KCaDgAAQE0VlmcLq6SHg2r670II54v8ngAAALCCwqrooeBKenS54O8HAAAAq7hY5OkVGtLH3f4whLBZ5PcEAACAJW2njWWFKbqSHlI1PfeJeAAAALCiwrvBCw/paWT920V/XwAAAFjA5rjb3yn6wMqopIe0AH5Y0vcGAACA44zK2lBWSkhP1XRD5AAAAKiit9NMtcIVuoJtXmfQey+EsOFHEgAAgIoodOXavLLa3adU0wEAAKiSUnNqqSE9XcK/WuYzAAAAQBJXrm2VeRhlV9JDuoxvJRsAAABlu1j2A5Qe0tMQudIPAgAAgFZ7o6xhcbNKHRw3yxA5AAAASlLqsLhZVWh3n1JNBwAAoAyVyaOVCempraCUZfEAAAC01ua429+uyoevUiU9BvXXQwg7FXgUAAAAmm9UtdXglQrpibZ3AAAAinAxDTOvjMqF9LQ7Xds7AAAAedoqeyf6YapYSY+uxul6FXgOAAAAmqeyq8ArGdJTu8GFCjwKAAAAzVO5NvepqlbStb0DAACQh0q2uU9VNqQH094BAADIVmXb3KcqHdIT094BAADIQmXb3KcqH9JT23ul9tYBAABQO1er3OY+VYdKegzqcdr7dgUeBQAAgPqpzcyzWoT05EK6PwAAAACLqHyb+1RtQno6UPfTAQAAWMTldI26FupUSQ/p/sDVCjwKAAAA1beVrk/XRq1CejgI6petZQMAAOAEwzp2Y9cupCfupwMAAHCcC3W5hz6rliF93O3X8jciAAAAFKJW99Bn1bWS7n46AAAAh6ndPfRZtQ3p4cH9dPvTAQAACGl+Wa27rmsd0pMLaSAAAAAA7TWq0z70o9Q+pKcXYJAcAABAu12s6z30WU2opIf0Ii5X4FEAAAAo3htpblntPdakH57OoPdWCOHVCjwKAAAAxYiD4i405awbUUmfMkgOAACgVWo/KG5eo0J6ciG9KAAAAJprMp+s7oPi5jWq3X2qM+idDSF8EEJYq8YTAQAAkLHvNmFQ3LwmVtJj23tcyfZiBR4FAACA7DVikvthGhnSw4OJ7426mwAAAEC4PO72N5t6DI0N6eEgqG9azQYAANAYm+Nu/2qTX2cj76TP6wx6vw0hvFKtpwIAAGABjVq1dpRGV9Knxt1+bHtvbDsEAABAw7XmOnMrKulTnUEvTnxfr8bTAAAAcAoxoL/YtFVrR2lFJX3Gi3aoAwAA1MaoTQE9tC2kpxcrqAMAAFRf6wJ6aFu7+1Rn0FsLIcTW97PVeCIAAABmTAN66wqsbWt3n0i/ibmQXjwAAADV0dqAHtpaSZ/qDHpxiNx7IYS1ajwRAABAq7U6oIe2h/QgqAMAAFRJDOjbbX4jrWx3n5V+Q/Oi1ncAAIBSXWx7QA8q6Q+oqAMAAJQmBvRNxy+kP0RQBwAAKNQoBfQtx35ASJ8jqAMAABSi9UPiDiOkH0JQBwAAyJWAfoTWD447zMwwOT8wAAAA2RLQj6GSfozOoLeWKurrlX1IAACA+hDQT6CSfoxxtz9SUQcAAMjEjoB+MpX0U0gV9d+GEM5X/mEBAACqZxrQR97N8YT0BXQGvRjUX6nNAwMAAJRPQF+AkL6gzqD3Vgjh1Vo9NAAAQDk2x93+RWd/ekL6EjqD3iup/R0AAIDDXR13+5edzWKE9CV1Br3zKajbpQ4AAPCwi+Nuf9OZLE5IX0Fn0FtPK9oEdQAAgIMVaxfG3f62s1iOkL4iu9QBAAAmhimgW7G2AnvSVzSzS10rBwAA0FYxmH9XQF+dSnqGOoPe6yGE1xrzgQAAAE5mgnuGhPSMGSgHAAC0iAFxGRPSc5AGyv3WPXUAAKChJtd+tbdnz530HKQfVPfUAQCAJoqT258T0POhkp6zzqD3agjhrUZ/SAAAoC2ujrv9y952foT0AqT299+FEM42/sMCAABNNEr3z7e83XwJ6QVJ+9TjPfXzrfjAAABAU+yk/edDbzR/QnrBtL8DAAA1or29YEJ6CbS/AwAAFae9vSSmu5cgTUH8runvAABABU2ntwvoJVBJL1ln0Duf7qqvtfogAACAssXq+Rvjbv+qN1EeIb0CDJUDAABKtpPa2+0+L5mQXiFpqNxrquoAAECBYvX8dQdeDUJ6xXQGvbOpqr7R9rMAAABypXpeQUJ6RamqAwAAOVI9ryghvcLcVQcAADIWJ7dfVj2vLiG9BtIE+LfsVQcAAJZkcntNCOk1karqsf391bafBQAAsJCtdPd85NiqT0ivmc6gt56q6gbLAQAAxxmmcL7tlOpDSK+pzqD3SgrrBssBAACzYsX8bYPh6klIrzEt8AAAwJytNBhu6GDqSUhvALvVAQCg9XZSONfaXnNCeoN0Br2NFNZNgQcAgHYYpqntm953MwjpDeS+OgAANN7k3nkI4aqp7c0ipDdUuq8e76r/XFgHAIBGuZqq58J5AwnpDTcT1l9r+1kAAEDNbaZwbihcgwnpLZGGy8Wg/krbzwIAAGpGOG8RIb1lhHUAAKgN4byFhPSWEtYBAKCyhPMWE9JbzoA5AACoDOEcIZ0DwjoAAJRiukptUzgnCOkcJu1Zj63wZx0QAADkYjgTzq1S4ytCOkfqDHobqbJ+3ikBAEAmtkMIN8bd/qbj5DBCOidKQ+Z+nobMaYUHAIDFxVD+9rjb33F2HEdI59TSvfXzKbCvOzkAADiWlnYWJqSzlM6gtz7TCq+6DgAAD2ymlvZtZ8KihHRWMlNdfzmEsOE0AQBoqdjGfkPVnFUJ6WQm3V1/JQV2k+EBAGi62M6+larm7pqTCSGdXKR2+JdTlV1gBwCgKUYpmP9+3O1veatkTUgnd2mV28vurwMAUFOCOYUR0imUCjsAADUhmFMKIZ3SpMAew/q/WOkGAEAFuGNO6YR0KiENndtIgX1DWzwAAAWJofx2/Oe42x86dMompFNJM1X2H1jtBgBAhmKFfDu1sdtjTuUI6dRCGj63IbQDALCgaSiP1fJtO8ypOiGdWpoJ7ee0xwMAkIxSKL+dgvmOUE7dCOk0QrrTvp4q7euq7QAArbCdQvluCuSGvVF7QjqNNRPcp+H9rLVvAAC1NEx/bqd/CuQ0lpBO66RW+WlgP5da5VXeAQDKt5Na1m/PBHMt67SKkA5JZ9BbS1X36T+/MbO/XYgHAFjdNITH8L0/E8SH1p/BASEdFpBa6Kct8+szA+tmA3045O8BAJpmfn3ZNHiHmQFuk/+sNR1OKYTw/2z0Q8ooseh4AAAAAElFTkSuQmCC;rounded=0;" parent="1" vertex="1">
          <mxGeometry x="366" y="-495" width="80.08" height="80" as="geometry" />
        </mxCell>
        <mxCell id="t6Iyf3yjnLZ49649UQFJ-6" style="edgeStyle=orthogonalEdgeStyle;rounded=0;orthogonalLoop=1;jettySize=auto;html=1;entryX=1;entryY=0.5;entryDx=0;entryDy=0;" parent="1" source="t6Iyf3yjnLZ49649UQFJ-7" target="t6Iyf3yjnLZ49649UQFJ-9" edge="1">
          <mxGeometry relative="1" as="geometry">
            <Array as="points">
              <mxPoint x="810" y="-655" />
            </Array>
          </mxGeometry>
        </mxCell>
        <mxCell id="t6Iyf3yjnLZ49649UQFJ-7" value="Lambda" style="points=[[0,0,0],[0.25,0,0],[0.5,0,0],[0.75,0,0],[1,0,0],[0,1,0],[0.25,1,0],[0.5,1,0],[0.75,1,0],[1,1,0],[0,0.25,0],[0,0.5,0],[0,0.75,0],[1,0.25,0],[1,0.5,0],[1,0.75,0]];outlineConnect=0;fontColor=#232F3E;gradientColor=#F78E04;gradientDirection=north;fillColor=#D05C17;strokeColor=#ffffff;dashed=0;verticalLabelPosition=bottom;verticalAlign=top;align=center;html=1;fontSize=12;fontStyle=0;aspect=fixed;shape=mxgraph.aws4.resourceIcon;resIcon=mxgraph.aws4.lambda;rounded=0;" parent="1" vertex="1">
          <mxGeometry x="771" y="-494" width="78" height="78" as="geometry" />
        </mxCell>
        <mxCell id="t6Iyf3yjnLZ49649UQFJ-8" style="edgeStyle=orthogonalEdgeStyle;rounded=0;orthogonalLoop=1;jettySize=auto;html=1;" parent="1" source="t6Iyf3yjnLZ49649UQFJ-9" target="t6Iyf3yjnLZ49649UQFJ-5" edge="1">
          <mxGeometry relative="1" as="geometry" />
        </mxCell>
        <mxCell id="t6Iyf3yjnLZ49649UQFJ-9" value="LINE Messaging API" style="rounded=0;whiteSpace=wrap;html=1;" parent="1" vertex="1">
          <mxGeometry x="346.04" y="-680" width="120" height="50" as="geometry" />
        </mxCell>
        <mxCell id="t6Iyf3yjnLZ49649UQFJ-10" value="FinMind API" style="rounded=0;whiteSpace=wrap;html=1;" parent="1" vertex="1">
          <mxGeometry x="762.5" y="-270" width="95" height="40" as="geometry" />
        </mxCell>
        <mxCell id="t6Iyf3yjnLZ49649UQFJ-11" style="edgeStyle=entityRelationEdgeStyle;rounded=0;orthogonalLoop=1;jettySize=auto;html=1;entryX=0;entryY=0.5;entryDx=0;entryDy=0;" parent="1" source="t6Iyf3yjnLZ49649UQFJ-12" target="t6Iyf3yjnLZ49649UQFJ-5" edge="1">
          <mxGeometry relative="1" as="geometry" />
        </mxCell>
        <mxCell id="t6Iyf3yjnLZ49649UQFJ-12" value="User" style="outlineConnect=0;fontColor=#232F3E;gradientColor=none;fillColor=#232F3D;strokeColor=none;dashed=0;verticalLabelPosition=bottom;verticalAlign=top;align=center;html=1;fontSize=12;fontStyle=0;aspect=fixed;pointerEvents=1;shape=mxgraph.aws4.user;rounded=0;" parent="1" vertex="1">
          <mxGeometry x="222.99999999999997" y="-494" width="78" height="78" as="geometry" />
        </mxCell>
        <mxCell id="t6Iyf3yjnLZ49649UQFJ-13" style="edgeStyle=orthogonalEdgeStyle;rounded=0;orthogonalLoop=1;jettySize=auto;html=1;" parent="1" source="t6Iyf3yjnLZ49649UQFJ-14" target="t6Iyf3yjnLZ49649UQFJ-17" edge="1">
          <mxGeometry relative="1" as="geometry" />
        </mxCell>
        <mxCell id="t6Iyf3yjnLZ49649UQFJ-14" value="Developer" style="outlineConnect=0;fontColor=#232F3E;gradientColor=none;fillColor=#232F3D;strokeColor=none;dashed=0;verticalLabelPosition=bottom;verticalAlign=top;align=center;html=1;fontSize=12;fontStyle=0;aspect=fixed;pointerEvents=1;shape=mxgraph.aws4.user;rounded=0;" parent="1" vertex="1">
          <mxGeometry x="640" y="-850" width="78" height="78" as="geometry" />
        </mxCell>
        <mxCell id="t6Iyf3yjnLZ49649UQFJ-15" value="Operator" style="outlineConnect=0;fontColor=#232F3E;gradientColor=none;fillColor=#232F3D;strokeColor=none;dashed=0;verticalLabelPosition=bottom;verticalAlign=top;align=center;html=1;fontSize=12;fontStyle=0;aspect=fixed;pointerEvents=1;shape=mxgraph.aws4.user;rounded=0;" parent="1" vertex="1">
          <mxGeometry x="550" y="-850" width="78" height="78" as="geometry" />
        </mxCell>
        <mxCell id="t6Iyf3yjnLZ49649UQFJ-16" style="edgeStyle=orthogonalEdgeStyle;rounded=0;orthogonalLoop=1;jettySize=auto;html=1;" parent="1" source="t6Iyf3yjnLZ49649UQFJ-17" target="t6Iyf3yjnLZ49649UQFJ-19" edge="1">
          <mxGeometry relative="1" as="geometry" />
        </mxCell>
        <mxCell id="t6Iyf3yjnLZ49649UQFJ-17" value="Github repo" style="shape=image;html=1;verticalAlign=top;verticalLabelPosition=bottom;labelBackgroundColor=#ffffff;imageAspect=0;aspect=fixed;image=https://cdn0.iconfinder.com/data/icons/octicons/1024/repo-128.png;rounded=0;" parent="1" vertex="1">
          <mxGeometry x="780" y="-850" width="78" height="78" as="geometry" />
        </mxCell>
        <mxCell id="t6Iyf3yjnLZ49649UQFJ-18" value="Build image" style="edgeStyle=orthogonalEdgeStyle;rounded=0;orthogonalLoop=1;jettySize=auto;html=1;" parent="1" source="t6Iyf3yjnLZ49649UQFJ-19" target="t6Iyf3yjnLZ49649UQFJ-23" edge="1">
          <mxGeometry x="0.0196" y="42" relative="1" as="geometry">
            <mxPoint as="offset" />
          </mxGeometry>
        </mxCell>
        <mxCell id="t6Iyf3yjnLZ49649UQFJ-19" value="Github Actions" style="shape=image;verticalLabelPosition=bottom;labelBackgroundColor=#ffffff;verticalAlign=top;aspect=fixed;imageAspect=0;image=data:image/png,iVBORw0KGgoAAAANSUhEUgAAAMgAAADICAYAAACtWK6eAAAnO0lEQVR4nOyde2wb173nj1yie/4QuqPCuBnsFST21N24aMqk67QxYHl52ExSp3WbtLERX5tFlNuUcXtTOMXm2srednmIJltVm6DOxt04vO7GQug0XicbZ6+zVeoJeLjSRR3UQl3GbVysMyW1vthJ63s1CYSLg65QLUY8tGWFnHNmOEMOqfkAgRFxHoff4W/O6/eIgQ4DUbIfInwjAOAmRSMbAQBx/l8//3c1lwEAFgDgEgDgoqWTiwCA8wCANyw9d7kDXyGih+nrxE0VLbsFIrwNIqwBAG4GAPhlqBUAALV0MsUM+iozSgs+XTdijdI2A1G07CaIcBoivAMAMNiGWzIAwJSlkwIz6CvMKC224Z4RPUagBgJRMgYRvkfRyEO8p+gUJjPoYUsnzzCjZHawHRFdRiAGYhuGopE9EOHvAAA2BHEPjzBuKD+IDCVCBt8NRNGyn1M0chAAsNHva/uIxQz6uKWTJ5hRYp1uTER48c1AIEqqaoY+BQDY4dc128AFSyd7LT1X6nRDIsLJB/y4iJop3q1o5GcAgH/jx/XayHqI8ChEeP3ifKW4OF+NJvIR19BSDwJREioa+SFEeK9P7bHstzp/s1f4nsfKpdoYAGBQ0YjK90hu8HFF7JyZxzuYUXrbp+tF9ACeDYQPqf6uxdUp+8d/ytLJFN/ou+D2AoqWXQ8A2AIR1iDC21pcFLDnJrvMfOq1Fq4R0UN4MhCIkterGap7fHvbw5iTfH/iNb8nyYqWvZHvt4zaQygv7WMGfdDMp57xs10R3YlrA1EzRfttfdLDj295iZUZ9AlLz11ye1+38OHfHojwmJdehRn0ITOfejKY1kV0C64MhBvHFPeTkmWR7z081om9B74ncy9E+FH7K7g5NzKSCGkD4cOqGZc9xxlLJ/dbeu7X3prnHxAlFUUj34MIP+jmvMhI1jZSy7x8Qj7j4g1s9xr//vKJ0a8vzE6+01oT/WFxvsoWZid/CgCg3EnyQzLnxQbi2yDC5xdmJ98KvpURYUNoIPZYXs3Q0y52xk1LJ7dfPnHf8cX56p9ab6K/MKNUZQZ9rn/TaEJ2bhIbiH8eAPA/mVEKhbFHtA+hgazfefSp2ED8S5LXO2fm8daF2cnftt604Ficr/4zM+jx2ED8w7GB+GckTvkgRHgbM+ik3RO1oYkRIcFxDqJmindDhF+UvNaMmcd3dFsMhpop/juI8OOSh79YGevbGXCTIkLEumYfQJQchAgfkbxOVxqHjZlPPWFPxCUP36FminsCblJEiGg6xBo8UPmxpG+VPay6tRuNo87C7OQbEGEYG4iPiI6NDcT/LTPos/YwrT2ti+gkDYdY3GV9SuJ808zjT7nd34AoqSoa+RpEeDuf/Cv2tfiy8Iv2/KATEYDx8aWfAAB2SRx6pDLW9/U2NCmiw7yvB4EoGVu/8+j/kNjvWLR0crvbCbmaKe5TNHIyNhDfxl1VIP+o3zYWiPBX+jeN7gYA/IYZpd+5+jYtwgz6Wv+m0S8BAP5McKjds56MVrV6n/fNQRSN7JFZ0mUG/Y6l595wczM1U/whRPigxE78BkUjenx86VmIkl78qTxhDxMtnezi8eyOKBqRndhHdDHX9CDcLeO/AQA+LDjvzOUTo193s8/BV4v+g8v23dS/afQvIcK/X5id/JXLcz3BjNIfIMIsNhC/XXAoAgBMMaP0D+1oV0RnuKYHgQjfI7F5Zg+t7nczR7DnHNwXygvrIcJH4+NLRUXLtiW+3dLJkzzXliOKRsba0Z6IznFND6Jm6H8FAPwrpxOYQf/L5RP3Tbq5yfqdRw/EBuKf9dpIThwinIEIg8X5ys+D3KXn1/4Nd5l3wjbY55hRsoJqS0RnudKDKFp2k0TwE7N08pjbm/DVKj+Adk+kZuibipa9xadrNoTHqZ8SHBaDCD8QZDsiOssVA4EIp0UH1+I5PLms3+DhHCc2Kho5o2aKT0OUVHy+9hUsnRDRMTK6RXQvKw1ElI1kkRn0CY/3EaUWPcsjDV0BEd6rZuhbaqZ4t8d2OWLpuVkAwIzgsEFFy24J4v4RnWfZQPgDFoXPngwqEtDSySFLJ/bw7oyH01WI8Ivx8aW/gyjZKNl1y20THSPxconoUpYNhCc7cMTSSSHIhlh67ldmHm/lflFe3Fa223MTNVPcB1HSt6z1zKCviNrj4xwrImTUDUQTHLfADBp4pg9mlBbNfOpJM48/bvdYHi7RDxE+qGboz/migx9tYhJt2aBoWd97r4jOsw6iZL/E6tWpdqboZEbpUmWs78vMoDt4HRC33Mwn8f+Jf7+WsHQiY6zRPKQHWceL1zgOSXjeqrZj5lMvmXn8SWbQQx4m8TGI8MN82PWFVtrBDPq66BiIcCez10cEhD3EukniOFc+V37CjJJl5lPfsnQyIrO73YA4RPhUfHzpBERJV1lNVrYBAHDO6RiIsIyOEV3GOl72zAnLS8ZDv7H03Bs113o6JuNM2IAdvDfxOhQ6K/g8zNnsIzyyrkkdwJV03Djq8En8D/gkXvdwifUQ4SlFy37C7YmWTkS9l+rHfCciXHSVgdRhRqlSGeu7jRk0zRNcu6Ff0chRD0vBF0UHQIQ9DeEiwss6UWwGz7IeSsx86piZxx8DABx1eerNEOE7XZ5TlTimHbUXI9qITA8S6tLK9gS6MtZ3n6UT7Ka3UzQiE1q7EpnNy3/h8poRIadpVpMVdEUyBkvPlfgk/lHJJWFhgoaVMIPK7MdEQ6weQ8ZAugZmlJiZT33X0skNEkvCLhNZR2Wk1yI9ZSCgFr3YzwOdRMuu0Q8+QojMSo5vjn9Bo2aKX4AIH5KYVwG3q3OKlpXpcbpiOBohT4xPwp0yh4R+ZQai5CCvsHuX7DnMoG73UWT2OP7R5TUjQs46XjizKbxgZiiBKBlTM8V9aoa+5cY4ePCXbFrVOjIviig2vceIcW9Zp2whoXTjVrTsLYq2HMzk2kmwVvHKdVGfj0ocE3hpuYj2EuM7xNjhGL/jyVtiRaWovR7nRzOWTv7a/X2xaNK/YOm5UO8ZRbhnnaUTkQvFIC+13HHUTPEeezjFy6h5MY4jPAu9a2dHCW9doStKRPcRk3Qh3wIAeKUN7WkIRMm4mqFPAwCEocFNuGjpZK+l54RxHU3ub+u0WXCYF1f8iJCzTibWQyIkNxD4JPxv+CTci3EwZtBHzTz+pFfjqLUD3yLhsyZyh4/oQtbxcbOjQ6JMUge/UbTsFjVD3+QpS6GHS1BLJzeZ+dR3Ww0Xlvz+pVbuERFO6jvpoj2BDYqWvbEN7bF7jfXx8aVnFY3MeAxCuswMmq6M9aUsPedLrUSIsMix0bL0nGPEYUR3smwglk6Em2btyCCoZor38uGUKCduM+xJ+MfMfOqYX23iKU5FSbM7ErMfETzLBsIM+qoojBUiPApR0stQRwhEeGN8fGkaInxUonBPI85bOhmpjPV93e9E0opG9oqOsXQiyuEb0aVwA1muLyh6C67nxXV8ByI85tb9nGNPwsfMPP6Upef+3v92LSd5EA2vGE8uF9GDXPHmlcmcaP+QPWYtDGKHecrM44+b+dQPgnJFVzRyQGKB4GQ3FzCNcOaKgfC3oChz+wZFI/d6uA/1cE4zLjGD7qiM9d3BjFJg4cC86I/M8MqtT1dEF3GlgM7ifPVPEOH+2EDcye0ExAbin2EG/fHifNXN0uk/+zDJX2QG/c+XT4zeY+m5X7Z4LSGDBypPSfh5nTfzKdduKxHdwzUBU5ZOnpHIOaUqGvmem5tYeu41j2l66py1dLLZzKe+3Y5qToqWTcqspDGDRoU8e5xrSrAtzlcXIMLrYwNxR7cKuxexh03MKMlk+liGGfR0/6bRtGRcRR3LnoRfPjH6wMLsZFuKZUKU7F+/8+jPeO12Jy7a7QqyFFxE5+lb/Qd77M33IkQ/kEu1JAklaQ9W7lP1smS60xfNPLZ7jLa6kMfHl56V7D1GzXzKVa3GiO7jA6v/wHuRmETRzQ/1bxpNMIMel32LLs5X7R7hx7GB+D/FBuI32NdocNiMpZOMmU99f3G++p70N/EBNVP8WmwgLlOq+uylH3zkr9rQpIgO874eBNTe9FDN0F/KuHowgx4y86lvebm5omXtnuR6vpRq90Szlp7zUgOxZdRMMQkR1mXc6O35kKXnOpbQO6J9NDQQwCeqikaklmeZQR828ymv9Qs7jqJlN/HvKpwftfJCiOg+3jfEqmNPwPmE/TOii8QG4rdDhK2F2cmue6ty4zgFAPiwxOH2xHzn4nz1j21oWkQIaGogYHnOUCn2bxrdLpNkLTYQ3wYRhguzk57jLtqNPazq3zT6M0njWLR0sm1hdlJ65S6i+2k6xKoDUfKjaoaelVjVqvOCmcdfD7v7hT0hhwgflg3dZQZ90MynfhR8yyLChGMPAmorT/MQ4XOxgfguyUyMN/RvGv0SAOB/MaP0B3+a6R8QJfsHD1Se4atVUpklmUGPmPnUd4NvXUTYEBqIzcLs5NsQ4d/HBuKy5Y7/DCL8lxBhtjhf+UVYNtMULZvkm4CO7jSrmLp8YnRPWL5DRHuRMhBQM5JZeyJuzzUkT4nZk/f+TaNfAQD8xs2uu99AlFQHD1SegggfdDFUtJkx8/jOdlb4jQgXwjnIamqF+pd/aG45aenkUUvPzXo41xO2YSgaOcC9ct0Ge83wFEGhnktFBItrAwGtGQngO+WHmEFfCerNzLMu7uXBTl6iIKfMPN4ZGUeEJwMBNSO5m4fIei1cucB7lZPMoK+34qULUTIGEb4FIryNJ1gQxZA3xZ6QWzr5RlQPJAK0YiCg9qa+UdHISZ/y957jbu3neZZCe86ywAx6qf5j5SUI+nki6Y9ChDfyjIebWzDUOovMoA9FS7kRK2nJQADPlatm6N8CAHb406SOcNHSya4g5kfcqLdAhDfz/L4beGKK1ckpLvGIzovMoOeZQc8wg76xloZ5YdSqZQOpo2aKe/i8JBR5fGVhBj1k6eQRP8VVtKzds9l63NVi8m/G52wvMIO+1I5gsXYTdq18MxDAk76pGfp9AMD9fl43IOzh3IN+euUqWvZORSMPe8zQIsL+ARQsnRz0ULohdHSLVr4aSB0+N3kcANCRnL4CLtby9foX7KRo2c8pGhmXDATzA/vh5yw913UZ5btNq0AMpA5fbh0DAGwPQa1De6z6uKWTY36tUPHSb0/z79dulhNzWzoJLO2Rn3SrVoEaSB1Fy8Yhwg/wzCbtrHnI+FLykVayuzdCzRTv4c6Obnbmg+Ccmcc7mFF6u8PtaEo3a9UWA1mJomW3QIR3QIS3t7Jf4YA9OZuydHKKb0b6urIBUTKmaOSHvIhPWFhgBt1l5lOvdrohK+kFrdpuICuxexYAwBY+WfMyJl3geybneX2OUpBZ1iFK9qsZeqKFQj5BssgjO5/sdENAD2nVUQOpI5NJhBmUMIOe56WW7V7iUjtrAvIH/tMWV11s471g6eTCqpos/RDhQb72v1kmQK0ZfLOzo0bSS1p1jYHwEmrPtK9VV6lVuqKnXbrJ29gTQt3SSYEZ9DXZFEl8b+BuPmdzXSOlk0bSa1p1jYHYk+3KWN+X29Ska4iPLz0HAHCTOnWRLy8+1upSrKJlb1U08h2XPzh7CHFXJ+YkvaaVVERdSNgGUbLtqyBqprjP5QOnlk5uqIz13efHPoWl516vjPWl7Imliyz5MYjwCxAlZWq7+0YvatVNBgI9Zpb3jKJlb4QIy+bfXXZ29LP020rMfOq4mcefAgDIFuux5wEveixX4Zpe1aqbDKRenySQKlfvv9fyEuVRyQ3OBWZQLehxvz0ur4z1fZEZ9FHJU25SNPI3QbYJ9LhWXWUgPLN8W1J+Khp5QHLp2bJ0MmLmU22rclur3EsfkjnWfqkoWjaI/aYr9LJW3WYg9pf4DkTJQHfj7bkOLz8tgjGDbrf03K+CbE8j7Dew5NsRui1X4YZe16rrDMR+YakZ+myQY2tFI/tk3CKYQfea+ZTvtRFl4amIZMbZuxQt+4kg2tDrWnWjgdhoikayQVzYnuPIlF4DABTCUP7AzOP7ZFZsFI1IDTPcsBa06lYDWR5q8WVFv697p8TurGXm8bf9vrcX7MkoM+jDEoem/V4mXwtada2BgNoDOui3kSgaEQZ71dxe5AsHuaW2G13cFx9f+ml8fOmt+PjSCUXLbml2vJlPHZcolGq/7e/2s51rQauuNhBw1Uj+1o85CUTJ9RK7sCav5RgI3I/pNA9f3sbdJ3YoGqFqpvhAs/MsnQgnoYpGRDXf3bRzTWjV9QYCakZyv5qhv1C07I0tXudW0Vo+M+iRoPJ5rXDya/TDi9k/BEXLNlzB4/EuFwS3GLHv4U9b14ZWPWEgnJsUjZxVM8WnIUp68vBUNCL04WEGDWSyKekBCwEATYdJzKAF0W0gwrd4b+VV1opWvWQggL859qoZ+rv4+NJzvJyzGxyr+9biTvyPA3fpHt50os0M+pL4Xlj0HWVZE1p1Ok48KOy3R1rRiP3fZe5GfYZ3q29zD9JGOKadYQZtpdZ744a6j51oOjSw9NwFRSOm08oST7TnB2tCq24xEMoMeg4i7GUtf31t86f1CSozlgsJOaJo2Rv4Pc+LAro8PPBLzKCvCI6xXwR3OXy+Iz6+tCR5P8/0iFbxbjEQYOZT31YzRQsiTDrYjKaepzyDy5GVb1ZFI02rbXl44AuWTnaIJr3MoBcgchurFAi9oJXaVXMQM5/KMYNu5yG3naDhW07RshsUjegNhh277Ae7euXIywNnBt0mk+SOGVQ2DiJoekGrwa4yEFAzklfNPP6kC19/37D0XKXR37mbdLPl05GVD97rA3fhxxSKXL69olXXGQiouQxc4r7+biLHgkS0orP84BUtqwb8wLuBrtKqKw2kDo8c+xj39w/cUBQt2ywxt0y2vhFFI7/r9ANvF72iVVcbCKj1JszMp5408/gj9sQMAHBS8iF4odlDn5E8XzYaspUH7ketFj/oBa2srjeQOswoLVp67qXKWN+XzTwesPTlZd3DPL+SXwbTMLDfzOPHeL0KP2jpbahoxHXqm4DoBa3MrlnmdQMzSgvMKB239NxxcLVE2wa+KfTnzXyIeFx1U2qbbLn3pYex50RmHmM1Q2kricx8GiqIHvpZSyeHWrj+MmtEq4vdkheLVsb6Um1ox+8E3a5eGeu7rdmHECWvb+HBt/zAeX2WPzgdwwz6uJlP/bXXe9RZK1r1zBDLJ0R5fR29YZlR+q39dvQwhPBlkgkR/pzoGGbQM63cYwVrQqvIQFZg6aTloCMPD963FRhFIzJJ23xZ6VkrWkUGci2viQ5QNCJM5e/iwfv4wJfT1Ygqep239JxfE+Q1oVVkICuw9NwFXk7BiZtl3OglHrxp5vHNfq3d8x1qUQDTST/uBdaQVpGBrIIZ1HF1BtQElkqxueLBr/ZsvWD/3f7cc0OvaU/2epmcuMygx/y434rr9bxW0SrWKhQtO8h3cUVvmAfNfOpHLq57M98beNvSc0JXcDfEx5eKEvHhM5Wxvq1+3nctaBUZSOP2yKTwX7B0srnTJZnVTHEfT1rgiKWTuyw9J4qPcE2vaxUNsRpg6cvDAtHue7+ikRf9SoLgBTVTTEpmVD8XhHGANaBVZCAN4PljRUH9NhsbxTC0A0XLfgIifEomo7qlL5fiDoRe1yoykCaYefyIZGDWSLsfvJopblE0MuMQV7GSU5aeEy7JtkIvaxUZSBOYUTJl0+bzB/+LoBJEr0TNFO+FCOuSNcctM4+/EXSbelmryEAc4AmXZfcONioaOaNmioHUL4Eoud6eEEOEj8q6gjOD7mVGqS0BZb2qVWQgAsw8/qpEFr46/RDhQ/HxpV94yMnVEIiSUM0U96kZ+r/d1P9jBj3E89C2jV7UKlrmlaAFz9Nl13Jm0JcaZetwQtGyGyDC9hDhfg/3nTLz+IvMKAUVONaUXtMqMhBJeKoaXXKytxoGAJhhBl3O78WT112u54LiOWTtB3s9RPhmiLAmSszmwIyZx3e4/ZH5SS9pFRmIC/iDP9lioE+QdNw46vSKVtEcxAWWnnuD+wvJjrPbScHM41QYjAP0kFaRgbiEO9V92sWKTdDUa45/tRNzDid6QavIQDxgv3kqY31fZgYd7WCWR1BziyA3B11zvBW6XavIQFrAzKcmzTz+OADgaICphhph1Txk8ac7UVbZC92qVWQgLcKMklkZ67vPfjtxn6QgH/5lZlBi5vFHzHzqR2EbUonoRq2iVSyfUbTsIF+Tt7/PBh8uaT9YaunkKN8jCKSkWSfoBq0iAwkQRctuBAB8jpcru0ky66H9kM8DAM5YOqHMoK8HWSU2LIRVq8hA2ghEyX6IcJyn5bxuhZ+QPXl9FwBQaZYVfa0RFq16MrNiWOEZH893uh3dQFi0iibpEREORAYSEeFAZCAREQ5EBhIR4UBkIBERDkQGEhHhQLTM20bCsrbfDQwlkv1DCWetZgrRPkhX42V3WNHImtxJH0nXtNqaltdqa/qqVtMFQufK9PW5crSTHmoC9C86wgz6Si/5Yo2ks4NDCXzvcMJfraYL5Mhcmb4yV+4dX6ynAABOtSQuVsb6PtbGJrlG0bI3Khp5GACwK8Ce2WQGPWzp5ElmlDoZW9ESI+nsjVvTwWtVLdPDMwXy5FzZu1Yf8LdNnknw4PtmfIgZ9PuL89U/tbFNUkCUVAcPVJ6CCB/iQ4MgFz76YwNx3L9pdC9EeGFxvvLLMGrSjKFEUv3mZOWp4UR7tFKui+PEbaN7hxJ44d13Kr989x33WoXCQCDC9rBkh8Mh6xbnKyeYUfp9G5slRM0U71U0cgoAsLnNK4IwNhD/fP+m0S/Z429mlN5p4709sXuieO/WdGe0Uq6Lfz5xW02rubI7rcKyzCtTHGVLG9ohBUTJ/vj40ss8c59MWsuguEnRyFk1U9zXwTY4MpRI9j8ytfTycKLzWm1Nk7O7J9xpFQoDYQY9z/MhNYWvBHUcnhjtFwCAuzrdFk4MInywlmozGapVyaFE8vo9E+HSajiBDz4ytfTcUEJOq5AYyHI4pKg88XaIklJ5VoNC0bK38KyBogL0nSCtZujpTtbgWMlIOnvLnonwarVngp62ezfRgaFYxQK18XwWIkycjrF0ssPScy+1r1VXCThbYH1DrCcyK9rGsTXdmlbVMqVz5atazRRqWo2kr2o1lMA3Dyda0+rYfnzHXDnkmRXB1R+gqBfpyH5Ir+WbDRI+rPKk1XSBHJor05ecfrCNGElnN/D9FE9aHduPvzhXDnFu3jrx8aX/AwAYdDrG0slN7Ux1Yw9Z+JzDzVDBNoyHLT1X8uH+UNHIA7x3lZ7k8ozl32r1/m6whyx8zuFKq+kCeXim0LpWQ4kkHEmTB4YT7rSqlumh5/c31ipUBqJmit+DCH9HcJheGeu7rU1Nso32ZReTzAVm0DE3FV1lgSi5Xs3QH7pM67+rnSUQHplyp1W1TMee3++/VkOJ5Po9E+60qpbpruf3v1+rUEzS6zCD/lgiV5KmZopfaEd71EzxXhcP/IKlk81BGAeoLWRcrqXMXM5QKOVCARE+DFHSsUf2i90T7rSaLpDNQRiHzVy5dPn72/q+Wi3LazWcwIeHEu/XKlQ9CJB/Y18y8/iTQbpbQJRU1Qx9S7KrbuvEWM0Ut/CilDJtO1UZ6/tikO0ZSiTVPRPyWokmxn6ye6K4ZTghr9X3t12rVSh20ldxASK8V3DMh/o3jcaDXNEaPFB5iu/6imj7qtHC7KQ9V5uCCNtDiA8KDv/XfLf97aDa881Jea3aaRw2b56uaTWckNdqrnxVq1ANscDVssIy2cB3BbWDrGjZGyXHrxc6taRq68QMul0mfaeikfGg2jGSlteq3cZRZ6aQ+1W1LKfV1vS1WoWxB7GZhQhnRJ6esYG4BhH+zcLs5Ft+3lzN0Me5M50TC5ZObl+YnfwHP+/thoXZySpE+L3YQHyb4FAVAHCOGSUZlx5X7JmQ02q6QG5/83TntHrz9GR1KIHfU66T02quXNMqdD0IqL0dLzKDyrz1YhDhF9RM8W6/7s1LfO0SHccMOmbpuV/7dV+v8HT+VHQcd8X3lZG0nFbVMh2bKXReq+f3y2nFXfGXCaWBgNp+x2O2JUscWjeSr/lxX4jwvRIxCmeDWq3ygqWTvRLDhxEe4egbQwk5rYJarfLCdEFOKx7hGF4DYUZp0dKJPbaVGbPaRnJEzRSfatVfi0cCOmLp/r+NW8HSc7/l5QQcgQjv8fO+PBLQkelCuLSaKchpNZSoaRVaAwG1B/9rZlDRitYVIMIPqhn6c0XLbvJyP/6GFYV+nvVjh9xveI/r+GaECPvmVcvfsEKt/Ngh95vpglir4URNq1AbCKiNsY8xgz7q4pSbFI2cUTPFpyFKuvXL+ZzoAEsnh1xesy3Y8zYAgC447AZFy/pVdVao1XQhnFrNFOS0Gkln1dAbCKgZyXeZQY+4OMUecu1VM/R3aqb4Q9mxt0TMCWMG7Yg3sQyWToRDB78Cz3j2ESfYXDm8Wk0X5LTqCgMBtYf/DQDACy5PgxDhhxSNvBUfX5pWM8V9AmMRLVfOhKXMciOYQV8THQMRltnQk0GoVSf2PGSZK4u1GkrgzaGKQHPCnrRXxvr+Qs0UTftH7+ESIxBh+z+7p7hc212mF5lBTbuT4sc45mJiBhUuEQLuVTqUwEm+pm7OlWnJbQqaoURS5deAAIDZmUJOWCuD58865/TjhQi7WskaSWfXc11Wxnb8uUirallOq07B82c5ajWcwBu7xkDqmPnUt9VM8QLPIuK1/etrEYrY/sFIn8SDnRzhwUIvrnLbvzRdIDtmCrk3ZO6ze6J4gLtsX1mR25omp47tx38h8Va+IHi7S+Wf4v5VzwIARBtrDeHBTmFHqFXXDLFWYuZTz1j68hi43Wk6Hf2Z7B/V1jSZahDTMmj/3f5cdIPdE8U9wwk8vtI4ONv3TNCfiM63dHJBcIiwDTyuo+jVODiB+X75xXRBrFVXGgiordr8vZnHn+J1t9uFY1rLkTT5KwevUYV/7gjvOZqxfSSdFYWXil4aQq9W3s5WNxW7IV2qUKuuNRBQG3NbvO72iOSue0vUY8ibMZxwngCLPueZNkRDIE97PG4YTuCRVq9RjyHvdrraQOrw3uTTPJjoYgebIpofOH7O46JFbhA9k5u3G+gJAwF8lcvMpyYrY30fs3RyFwBgSsa92Q08+0hTqmU61crnHKfVHzZXpqKd6ZbT/lTLdKbVa/DsI2FHqFXPGMhKLD33SmWs7w5LJx9hBn2I75r68eZd7/ThTIH82P6n2cf8c0e471LDnqZapmSuXDKdzocIi0JsL4naMFMgP+IrPK3gqFUYGEqItepJA6lj6blLZj71ZGWs7zYzjwcsnWDuaHiU/5ArLg3neqcP7SHSsf34jmqZHlzxI1+w/58HCwl7tJlC7lfTheU5lb6iB7xYLdP08/tTPxCdL7HP4Whg/HssHNuPU7wX9oqjVmFgOCHWKnQx6Z0kPr70/5z2VphBD5r51Lfb2yp3xMeX/q9gKffFyljfTtnr8Y1CZeVwda5MrT0T9A9OWtkvhef3h1urR6bEWnXdRmHAnBfsQjuVaOg43I3GcZ9DZrNzJXw1qtGKlKNWPONhaOHeyI5aVcv0XE8PsTwgyux4g6Jl/aiEFAgQYWFkJTOo6DvKItRqJB1erYYSYq3myvRMZCArsHQi9B/iEYehhGc5cYIxg0q5u4iYLoi14hGHoYRnOXGCzZXpG5GBrIAZ9HWJoKP7O51lvhGKlr1VYvfbN2/kubJYq+EEvn8oET6tRtJyWs2VSwuRgayAe8OK3oyqopEH2tQkaRSNiFK22j2k23CBpnBvWKFWI+nwabU1LdZqulDTKjKQVVg6Efp2QYQJRMnQrPOrmeI9AIC2B3tNF8RaDScwGUqER6vdE3Ja1YO9IgNZBf8RifYKFJ5IuuPYhgoRflzi0ILfqVr5j0ioFU8k3XFsQx1OyGlVr4wbGcgqmFGy37SHJQ5N8+TWHUXNLMdsCBNUWzo56Pe958olVi3LacWTW3cUHt8i1Gq6cFWryEAaYOnkSfsf0XEQ4cNqptix4qJqpvg9AMB2iUNfCCrJ3UxBTqvhBD68e6JzWu2ekNdqZZK7sKYe7SiL81UGEV6IDcQ/Lzg0FhuIfwUAMNXuUsxqprgPIvwfJQ5llk52MqP0T0G04913qmwogReU68RaKdfVtHJbirlVdk8U9w0n5LSaLpCdc+WrWkU9SBMsnTwjGWOiKBqZUTPFZBuatQwvNCQ1ZGIGHecpgQJjpiCv1dY0mdk90T6t7J5jOCGnVbVMx3lKoCtEPUgTFuerfwIAnOE1AkUvkg/GBuJpiPB7C7OTvmzENcKekA8eqByPDcTvlzzl3OUTo1/l3yUw3n2nphWvESjUSrkunh5K4PfePB2cVvaE/JuTlePKdfJavfrE6Ff5d7lCZCAO2MMmyezpNuvs43hurTPMKP2jn21RM8V7FI38dwDAzZKnLJh5/Fm/29EMe9gkmT3dZp19HM+tdWau7G8bd08U79madqfVsf34s43aEXnzShAfX3rOTb07vsNcsHTyWKvDG0XL3so3AeXTrwCwyAx6l5lPvdrKvb3wyJQ3raYL5LHVwxu3jKSzt/JNQFdaVcv0ruf3N9YqMhAJIErG1Aw97VJ4wB++bumkwAz6Gt+pF6Jo2Y0Q4bu5b5Xr5AnMoA/xsghtZyiRjO2Z8K7VdIEU5sr0Nb5TL2Qknd04lMB3c98q11pVy/QhXhahIZGBSMLLQf/UfiYtXOYcL/Z5YVVGjX6I8CAPdtrsodb3FTppHHV42iBftOKpea7RaiiBB3mwU0taiYwDRAbiDm4kJ1rMFxUU9rDq4U4bRx1uJKHVqlqmD4uMA0STdHcszlf/yAx6PDYQ/3BsIP6ZTrdnBQvMoDvMfOq5TjekzrvvVP84V6bH/+V18Q8r14VLq2qZ7nh+v5xWUQ/iETVTvAcifFiyvHCQnDPzeEeQVWxbZfdE8Z7hRDi0OrYf71hZxVZEZCAtAFFyUM3QpyVdGPyG1TYByWPMECeD6DRDieTgnonOaVXbBCSPySTOWEk0xGqBxfnqe5ae+wnfULyhlQmjS16wdLLz8on7Xg56E9Av3n2n+t5MoabVcKK9Wk0XyM5Xn7jv5dWbgDJEPYiPKFr2Tl5NtuXUnQ1gfG/lYBiq67bKSDp7J68mG5hW0wVysNXqupGBBADfx9jDawKKkk07YT/oGUsnLzCDvuR3PEcY4PsYe3hNwJa1mi6QF+bK9KV6PEerRAYSMLwm4BaI8Ga+z7GBDy9WT1gv8eCjCjPoOWbQM8ygb4S5opXfjKRrWg0l8Ga+zyHUqlqm5+bK9Mxcmb4RREWr/x8AAP//mC6b1mgHT/IAAAAASUVORK5CYII=;rounded=0;" parent="1" vertex="1">
          <mxGeometry x="919" y="-850" width="78" height="78" as="geometry" />
        </mxCell>
        <mxCell id="t6Iyf3yjnLZ49649UQFJ-20" style="edgeStyle=orthogonalEdgeStyle;rounded=0;orthogonalLoop=1;jettySize=auto;html=1;entryX=1;entryY=0.5;entryDx=0;entryDy=0;entryPerimeter=0;" parent="1" source="t6Iyf3yjnLZ49649UQFJ-21" target="t6Iyf3yjnLZ49649UQFJ-7" edge="1">
          <mxGeometry relative="1" as="geometry" />
        </mxCell>
        <mxCell id="t6Iyf3yjnLZ49649UQFJ-21" value="ECR" style="points=[[0,0,0],[0.25,0,0],[0.5,0,0],[0.75,0,0],[1,0,0],[0,1,0],[0.25,1,0],[0.5,1,0],[0.75,1,0],[1,1,0],[0,0.25,0],[0,0.5,0],[0,0.75,0],[1,0.25,0],[1,0.5,0],[1,0.75,0]];outlineConnect=0;fontColor=#232F3E;gradientColor=#F78E04;gradientDirection=north;fillColor=#D05C17;strokeColor=#ffffff;dashed=0;verticalLabelPosition=bottom;verticalAlign=top;align=center;html=1;fontSize=12;fontStyle=0;aspect=fixed;shape=mxgraph.aws4.resourceIcon;resIcon=mxgraph.aws4.ecr;rounded=0;" parent="1" vertex="1">
          <mxGeometry x="919" y="-493.2" width="78" height="78" as="geometry" />
        </mxCell>
        <mxCell id="t6Iyf3yjnLZ49649UQFJ-22" value="Push image" style="edgeStyle=orthogonalEdgeStyle;rounded=0;orthogonalLoop=1;jettySize=auto;html=1;" parent="1" source="t6Iyf3yjnLZ49649UQFJ-23" target="t6Iyf3yjnLZ49649UQFJ-21" edge="1">
          <mxGeometry x="0.0526" y="42" relative="1" as="geometry">
            <mxPoint as="offset" />
          </mxGeometry>
        </mxCell>
        <mxCell id="t6Iyf3yjnLZ49649UQFJ-23" value="" style="shape=image;html=1;verticalAlign=top;verticalLabelPosition=bottom;labelBackgroundColor=#ffffff;imageAspect=0;aspect=fixed;image=https://cdn1.iconfinder.com/data/icons/social-media-2106/24/social_media_social_media_logo_docker-128.png;rounded=0;" parent="1" vertex="1">
          <mxGeometry x="919" y="-670" width="78" height="78" as="geometry" />
        </mxCell>
        <mxCell id="t6Iyf3yjnLZ49649UQFJ-24" value="Query stock data" style="endArrow=classic;startArrow=classic;html=1;rounded=0;exitX=0.5;exitY=0;exitDx=0;exitDy=0;" parent="1" source="t6Iyf3yjnLZ49649UQFJ-10" edge="1">
          <mxGeometry x="-0.3866" y="-50" width="50" height="50" relative="1" as="geometry">
            <mxPoint x="809.66" y="-330" as="sourcePoint" />
            <mxPoint x="809.6599999999999" y="-390" as="targetPoint" />
            <mxPoint as="offset" />
          </mxGeometry>
        </mxCell>
      </root>
    </mxGraphModel>
  </diagram>
</mxfile>
